<svg width="50" height="51" viewBox="0 0 50 51" fill="none" xmlns="http://www.w3.org/2000/svg">
<g clip-path="url(#clip0_237_829)">
<path d="M17.6874 50.3071C14.4791 48.8904 12.2999 45.8362 12.0145 42.3404C12.202 38.7425 14.102 35.455 17.1187 33.4946C16.6228 34.7029 16.7437 36.0779 17.4312 37.1821C18.2145 38.2758 19.5603 38.8008 20.8791 38.5279C22.7583 37.9987 23.8583 36.0487 23.3291 34.1696C23.1416 33.5112 22.7666 32.9154 22.2541 32.4654C20.1291 30.7362 19.0624 28.0216 19.4416 25.3071C19.8062 23.8696 20.602 22.5696 21.7249 21.5883C20.8812 23.8383 23.2603 26.0591 24.8583 27.1508C27.6916 28.8508 30.4208 30.7196 33.0333 32.7466C35.8874 34.9966 37.4437 38.5175 37.1999 42.1216C36.5583 45.955 33.8458 49.1216 30.1478 50.3091C37.5437 48.6633 45.1687 42.7883 45.3145 34.455C45.1687 27.7883 41.1895 21.805 35.1062 19.08H34.8353C34.9708 19.4071 35.0353 19.7591 35.0228 20.1133C35.0437 19.8841 35.0437 19.655 35.0228 19.4258C35.0562 19.6966 35.0562 19.9675 35.0228 20.2383C34.5603 22.1341 32.6478 23.3008 30.7478 22.8383C29.9895 22.6508 29.3103 22.2237 28.8228 21.6091C26.3853 18.4841 28.8228 14.9279 29.2312 11.4904C29.4812 7.09456 27.4728 2.89248 23.9103 0.32373C25.6937 3.29665 23.3187 7.19873 21.5916 9.41956C19.8624 11.6404 17.3624 13.2946 15.3249 15.2321C13.1291 17.2737 11.1166 19.5196 9.31034 21.9196C5.40617 26.6904 3.87284 32.9821 5.14367 39.0133C6.88534 44.8258 11.7166 49.1925 17.6749 50.3258H17.7083L17.6874 50.3071Z" fill="#034F62"/>
</g>
<defs>
<clipPath id="clip0_237_829">
<rect width="50" height="50" fill="white" transform="translate(0 0.307007)"/>
</clipPath>
</defs>
</svg>
