<svg width="113" height="26" viewBox="0 0 113 26" fill="none" xmlns="http://www.w3.org/2000/svg">
<g clip-path="url(#clip0_28_77)">
<path d="M32.142 11.2008C31.3409 10.6824 29.2362 10.4613 27.7061 10.8574C27.6238 9.39194 26.8377 8.15688 25.3996 7.08004L24.8676 6.73661L24.5128 7.25176C23.8157 8.26903 23.5219 9.62509 23.6255 10.8578C23.7078 11.6173 23.9822 12.4708 24.5128 13.0901C22.5209 14.201 20.6853 13.9487 12.5551 13.9487H0.00307003C-0.0337182 15.7138 0.261556 19.1086 2.50709 21.8724C2.75493 22.1777 3.02697 22.4732 3.32224 22.7575C5.1481 24.5152 7.90674 25.8042 12.0319 25.8075C18.3246 25.8131 23.7165 22.5425 26.9965 14.6356C28.0759 14.6528 30.9246 14.8213 32.3187 12.2316C32.3525 12.1878 32.6735 11.5447 32.6735 11.5447L32.142 11.2013V11.2008ZM8.19475 9.37938H4.66501V12.7728H8.19475V9.37938ZM12.755 9.37938H9.22531V12.7728H12.755V9.37938ZM17.3153 9.37938H13.7856V12.7728H17.3153V9.37938ZM21.8756 9.37938H18.3459V12.7728H21.8756V9.37938ZM3.63543 9.37938H0.104722V12.7728H3.63446V9.37938H3.63543ZM8.19572 5.09296H4.66598V8.48636H8.19572V5.09296ZM12.756 5.09296H9.22628V8.48636H12.756V5.09296ZM17.3163 5.09296H13.7866V8.48636H17.3163V5.09296ZM17.3149 0.807007H13.7851V4.2004H17.3149V0.807007Z" fill="#225A5E"/>
<path d="M112.782 20.5708C112.782 21.4522 112.062 22.1442 111.126 22.1442C110.19 22.1442 109.46 21.4522 109.46 20.5708C109.46 19.6894 110.199 19.0165 111.126 19.0165C112.053 19.0165 112.782 19.7085 112.782 20.5708ZM109.874 20.5708C109.874 21.2628 110.406 21.8124 111.136 21.8124C111.865 21.8124 112.368 21.2628 112.368 20.5806C112.368 19.8983 111.845 19.3292 111.126 19.3292C110.407 19.3292 109.874 19.8886 109.874 20.5708H109.874ZM110.87 21.3861H110.495V19.8318C110.642 19.8034 110.85 19.7843 111.116 19.7843C111.422 19.7843 111.559 19.8318 111.678 19.8983C111.767 19.9644 111.835 20.0877 111.835 20.2394C111.835 20.4102 111.698 20.5429 111.501 20.5996V20.6187C111.658 20.675 111.747 20.789 111.796 20.9975C111.845 21.2344 111.875 21.3293 111.915 21.3861H111.511C111.461 21.3293 111.431 21.1874 111.382 21.0068C111.353 20.8365 111.254 20.7606 111.047 20.7606H110.87V21.3866V21.3861ZM110.879 20.5047H111.057C111.264 20.5047 111.431 20.4386 111.431 20.2776C111.431 20.1352 111.323 20.0398 111.086 20.0398C110.988 20.0398 110.919 20.0496 110.879 20.0598V20.5047Z" fill="#225A5E"/>
<path d="M49.26 4.84075C49.0281 4.62296 48.7498 4.51221 48.4163 4.51221C48.0827 4.51221 47.7962 4.62296 47.573 4.84075C47.3494 5.05854 47.24 5.33775 47.24 5.67048V11.2269C46.0928 10.3152 44.7689 9.85546 43.263 9.85546C41.5126 9.85546 40.0159 10.4632 38.7758 11.6829C37.5356 12.8984 36.9199 14.369 36.9199 16.0936C36.9199 17.8182 37.54 19.2846 38.7758 20.5043C40.0159 21.7198 41.5088 22.3317 43.263 22.3317C45.0172 22.3317 46.4936 21.724 47.7502 20.5043C48.9903 19.3008 49.6061 17.8308 49.6061 16.0936V5.67002C49.6061 5.33729 49.4923 5.05807 49.26 4.84028V4.84075ZM46.9278 17.5967V17.6051C46.7211 18.0774 46.4384 18.492 46.0802 18.8453C45.722 19.2027 45.2999 19.4819 44.8192 19.6913C44.3342 19.9007 43.8197 20.0035 43.2674 20.0035C42.715 20.0035 42.1879 19.9007 41.7029 19.6913C41.2179 19.4819 40.8001 19.2027 40.4463 18.8494C40.0919 18.4962 39.8097 18.0816 39.603 17.6093C39.3964 17.1327 39.2908 16.6278 39.2908 16.0936C39.2908 15.5594 39.3964 15.0544 39.603 14.5779C39.8097 14.1014 40.0924 13.6909 40.4463 13.3377C40.8006 12.9845 41.2222 12.7053 41.7029 12.4959C42.1879 12.2865 42.7068 12.1836 43.2674 12.1836C43.8279 12.1836 44.3342 12.2865 44.8192 12.4959C45.3043 12.7053 45.722 12.9845 46.0802 13.3419C46.4384 13.6993 46.7211 14.114 46.9278 14.5821C47.1345 15.0544 47.24 15.5556 47.24 16.0894C47.24 16.6232 47.1345 17.1285 46.9278 17.5967Z" fill="#225A5E"/>
<path d="M101.664 13.6993C101.357 12.9598 100.888 12.2906 100.272 11.6908L100.264 11.6866C99.0114 10.4711 97.5137 9.85913 95.7769 9.85913C94.0401 9.85913 92.5294 10.4669 91.2892 11.6866C90.0491 12.9021 89.4338 14.3726 89.4338 16.0973C89.4338 17.8219 90.0539 19.2882 91.2892 20.5079C92.5294 21.7235 94.0227 22.3354 95.7769 22.3354C97.3704 22.3354 98.7495 21.8305 99.9224 20.8202C100.149 20.5903 100.264 20.3111 100.264 19.9863C100.264 19.6614 100.155 19.3743 99.9306 19.1565C99.7074 18.9387 99.4248 18.828 99.0874 18.828C98.7926 18.8364 98.5307 18.9308 98.3076 19.1198C97.9532 19.4153 97.5694 19.6414 97.1521 19.7894C96.7344 19.9374 96.2789 20.0114 95.7818 20.0114C95.3427 20.0114 94.9211 19.9458 94.5208 19.8104C94.1195 19.6749 93.7448 19.4897 93.4113 19.2477C93.0735 19.0053 92.783 18.7182 92.5342 18.3771C92.2854 18.0401 92.0957 17.6665 91.9693 17.256H100.94C101.272 17.256 101.551 17.1453 101.783 16.9275C102.015 16.7097 102.129 16.4305 102.129 16.0977C102.129 15.2354 101.972 14.4345 101.665 13.6993H101.664ZM91.9601 14.9395C92.0826 14.5327 92.268 14.159 92.5168 13.8184C92.7661 13.4815 93.0609 13.1902 93.3983 12.9477C93.74 12.7053 94.1108 12.5205 94.5198 12.3851C94.9284 12.2497 95.3456 12.1841 95.7769 12.1841C96.2082 12.1841 96.6245 12.2497 97.0287 12.3851C97.4338 12.5205 97.8056 12.7053 98.1381 12.9477C98.476 13.1902 98.7708 13.4773 99.0196 13.8184C99.2723 14.1553 99.463 14.529 99.5937 14.9395H91.9596H91.9601Z" fill="#225A5E"/>
<path d="M112.688 10.6396C112.477 10.4386 112.211 10.2822 111.89 10.1673C111.57 10.0523 111.22 9.97416 110.836 9.92902C110.457 9.88388 110.098 9.8634 109.765 9.8634C109.01 9.8634 108.302 9.98253 107.636 10.2208C106.969 10.4591 106.353 10.7997 105.788 11.2432V11.0217C105.788 10.7015 105.674 10.4302 105.442 10.2045C105.21 9.97881 104.936 9.86387 104.612 9.86387C104.287 9.86387 104 9.97881 103.768 10.2045C103.536 10.4302 103.422 10.7057 103.422 11.0217V21.1781C103.422 21.4983 103.536 21.7696 103.768 21.9953C104 22.221 104.278 22.3359 104.612 22.3359C104.945 22.3359 105.214 22.221 105.442 21.9953C105.674 21.7696 105.788 21.4941 105.788 21.1781V16.0978C105.788 15.5557 105.893 15.0466 106.1 14.57C106.307 14.0935 106.59 13.6831 106.948 13.3299C107.307 12.9767 107.729 12.6974 108.209 12.4959C108.694 12.2907 109.209 12.1879 109.762 12.1879C110.314 12.1879 110.836 12.2823 111.313 12.4671C111.503 12.5495 111.668 12.5904 111.811 12.5904C111.976 12.5904 112.131 12.5616 112.275 12.5001C112.418 12.4387 112.545 12.3563 112.65 12.2498C112.756 12.1432 112.84 12.0199 112.903 11.8761C112.966 11.7365 113 11.5843 113 11.42C113 11.0999 112.895 10.8411 112.684 10.6396H112.688H112.688Z" fill="#225A5E"/>
<path d="M63.1683 13.703C62.8604 12.9677 62.4006 12.2944 61.781 11.6866C60.5287 10.4711 59.0315 9.85913 57.2938 9.85913C55.556 9.85913 54.0467 10.4669 52.8066 11.6866C51.5664 12.9021 50.9512 14.3726 50.9512 16.0973C50.9512 17.8219 51.5713 19.2882 52.8066 20.5079C54.0467 21.7235 55.5395 22.3354 57.2938 22.3354C59.048 22.3354 60.5243 21.7276 61.781 20.5079C63.0211 19.3045 63.6368 17.8344 63.6368 16.0973C63.6281 15.235 63.4723 14.4383 63.1687 13.703H63.1683ZM60.9585 17.5962V17.6046C60.7519 18.0769 60.4692 18.4915 60.111 18.8447C59.7528 19.2021 59.3307 19.4814 58.85 19.6908C58.3693 19.9002 57.8504 20.003 57.2981 20.003C56.7458 20.003 56.2187 19.9002 55.7336 19.6908C55.2486 19.4814 54.8309 19.2021 54.477 18.8489C54.1227 18.4957 53.8405 18.0811 53.6338 17.6087C53.4271 17.1322 53.3216 16.6273 53.3216 16.0931C53.3216 15.5588 53.4271 15.0539 53.6338 14.5774C53.8405 14.1009 54.1232 13.6904 54.477 13.3372C54.8314 12.984 55.253 12.7048 55.7336 12.4954C56.2187 12.286 56.7376 12.1831 57.2981 12.1831C57.8587 12.1831 58.365 12.286 58.85 12.4954C59.335 12.7048 59.7528 12.984 60.111 13.3414C60.4692 13.6988 60.7519 14.1134 60.9585 14.5816C61.1652 15.0539 61.2708 15.5551 61.2708 16.0889C61.2708 16.6227 61.1652 17.128 60.9585 17.5962Z" fill="#225A5E"/>
<path d="M88.5391 11.0175C88.5391 10.8616 88.5052 10.7136 88.4423 10.574C88.3789 10.4344 88.2947 10.3074 88.1891 10.2003C88.0836 10.0938 87.9573 10.0072 87.814 9.94996C87.6707 9.89272 87.5148 9.85968 87.3503 9.85968C87.114 9.85968 86.903 9.91739 86.7176 10.0365L79.9447 14.3695V5.67843C79.9447 5.34989 79.8309 5.07486 79.5991 4.8487C79.3672 4.623 79.0932 4.50806 78.7684 4.50806C78.4436 4.50806 78.1571 4.623 77.9247 4.8487C77.6929 5.0744 77.5791 5.34989 77.5791 5.67843V21.1614C77.5791 21.4816 77.6929 21.757 77.9247 21.9869C78.1566 22.2168 78.4349 22.3318 78.7684 22.3318C79.1019 22.3318 79.3716 22.2168 79.5991 21.9869C79.8309 21.757 79.9447 21.4816 79.9447 21.1614V17.1407L81.3281 16.2495L86.5617 22.0279C86.7728 22.2289 87.0385 22.3276 87.3546 22.3276C87.5192 22.3276 87.6751 22.2987 87.8183 22.2373C87.9616 22.1796 88.0884 22.0935 88.1935 21.9869C88.299 21.8804 88.3832 21.757 88.4466 21.6132C88.5101 21.4736 88.5435 21.3215 88.5435 21.1698C88.5435 20.8659 88.4341 20.5946 88.2143 20.3568L83.3432 14.9647L88.0875 11.9338C88.391 11.7328 88.5386 11.4247 88.5386 11.0096V11.018L88.5391 11.0175Z" fill="#225A5E"/>
<path d="M68.4866 13.3293C68.8492 12.9761 69.2713 12.6969 69.7563 12.4954C70.2413 12.2902 70.7559 12.1873 71.3082 12.1873C71.8058 12.1873 72.2656 12.2697 72.6916 12.4335C73.1132 12.5978 73.5184 12.8402 73.9017 13.1562C74.1292 13.3326 74.3868 13.4229 74.6733 13.4229C75.0151 13.4229 75.2934 13.3121 75.517 13.0901C75.7407 12.8682 75.8501 12.5889 75.8501 12.2562C75.8501 11.9235 75.715 11.6154 75.441 11.3776C74.2769 10.3673 72.8983 9.86194 71.3082 9.86194C69.5578 9.86194 68.0611 10.4697 66.821 11.6894C65.5808 12.9049 64.9656 14.3755 64.9656 16.1001C64.9656 17.8247 65.5856 19.291 66.821 20.5107C68.0611 21.7263 69.5539 22.3382 71.3082 22.3382C72.8939 22.3382 74.273 21.8333 75.441 20.8225C75.6898 20.5764 75.8167 20.293 75.8167 19.9644C75.8167 19.6359 75.7068 19.3525 75.4836 19.1347C75.26 18.9169 74.9778 18.8061 74.6404 18.8061C74.3538 18.8145 74.1046 18.8964 73.894 19.0523C73.5145 19.3725 73.118 19.6107 72.6921 19.7708C72.2705 19.9309 71.8106 20.0091 71.3086 20.0091C70.7563 20.0091 70.2418 19.9062 69.7568 19.701C69.2717 19.4958 68.8501 19.2166 68.4871 18.8676C68.1245 18.5185 67.8375 18.0997 67.6308 17.6274C67.4241 17.1509 67.3186 16.6417 67.3186 16.0996C67.3186 15.5575 67.4241 15.0484 67.6308 14.5718C67.8375 14.0953 68.124 13.6849 68.4871 13.3317V13.3275L68.4866 13.3293Z" fill="#225A5E"/>
</g>
<defs>
<clipPath id="clip0_28_77">
<rect width="113" height="25" fill="white" transform="translate(0 0.807007)"/>
</clipPath>
</defs>
</svg>
