<svg width="50" height="50" viewBox="0 0 50 50" fill="none" xmlns="http://www.w3.org/2000/svg">
<path d="M24.9999 2.08325C12.3385 2.08325 2.08325 12.3385 2.08325 24.9999C2.08325 35.1405 8.64315 43.7055 17.7525 46.742C18.8984 46.9426 19.328 46.2551 19.328 45.6535C19.328 45.1093 19.2994 43.3045 19.2994 41.3853C13.5416 42.4451 12.052 39.9816 11.5937 38.6926C11.3359 38.0337 10.2187 35.9999 9.24471 35.4555C8.44263 35.026 7.29679 33.966 9.21606 33.9374C11.0208 33.9087 12.3098 35.5989 12.7395 36.2864C14.802 39.7524 18.0963 38.7785 19.414 38.177C19.6145 36.6874 20.2161 35.6847 20.8749 35.1118C15.776 34.5389 10.4478 32.5624 10.4478 23.7968C10.4478 21.3045 11.3359 19.2421 12.7968 17.6379C12.5676 17.065 11.7655 14.7161 13.026 11.565C13.026 11.565 14.9452 10.9635 19.328 13.914C21.1614 13.3984 23.1093 13.1405 25.0572 13.1405C27.0051 13.1405 28.953 13.3984 30.7864 13.914C35.1693 10.9348 37.0885 11.565 37.0885 11.565C38.3489 14.7161 37.5468 17.065 37.3176 17.6379C38.7787 19.2421 39.6666 21.276 39.6666 23.7968C39.6666 32.591 34.3099 34.5389 29.211 35.1118C30.0416 35.828 30.7578 37.203 30.7578 39.3514C30.7578 42.4166 30.7291 44.8801 30.7291 45.6535C30.7291 46.2551 31.1589 46.9712 32.3047 46.742C41.3568 43.7055 47.9166 35.1118 47.9166 24.9999C47.9166 12.3385 37.6614 2.08325 24.9999 2.08325Z" fill="#225A5E"/>
</svg>
