<svg width="50" height="50" viewBox="0 0 50 50" fill="none" xmlns="http://www.w3.org/2000/svg">
<path d="M42.7082 4.16675H7.2915C6.4627 4.16675 5.66785 4.49599 5.0818 5.08204C4.49574 5.66809 4.1665 6.46295 4.1665 7.29175V42.7084C4.1665 43.5372 4.49574 44.3321 5.0818 44.9181C5.66785 45.5042 6.4627 45.8334 7.2915 45.8334H42.7082C43.537 45.8334 44.3318 45.5042 44.9179 44.9181C45.5039 44.3321 45.8332 43.5372 45.8332 42.7084V7.29175C45.8332 6.46295 45.5039 5.66809 44.9179 5.08204C44.3318 4.49599 43.537 4.16675 42.7082 4.16675ZM16.6665 39.5834H10.4165V20.8334H16.6665V39.5834ZM13.5415 17.1876C12.8252 17.1671 12.1308 16.936 11.5452 16.5232C10.9595 16.1103 10.5084 15.534 10.2484 14.8663C9.98833 14.1986 9.93083 13.469 10.083 12.7688C10.2353 12.0685 10.5905 11.4287 11.1042 10.9292C11.618 10.4297 12.2676 10.0927 12.9718 9.96021C13.6761 9.82777 14.4037 9.9058 15.0639 10.1845C15.724 10.4633 16.2874 10.9304 16.6836 11.5275C17.0798 12.1246 17.2912 12.8252 17.2915 13.5417C17.2751 14.5216 16.8714 15.4552 16.1687 16.1383C15.466 16.8215 14.5215 17.1987 13.5415 17.1876ZM39.5832 39.5834H33.3332V29.7084C33.3332 26.7501 32.0832 25.6876 30.4582 25.6876C29.9817 25.7193 29.5163 25.8448 29.0885 26.057C28.6607 26.2691 28.279 26.5637 27.9654 26.9237C27.6518 27.2838 27.4124 27.7023 27.261 28.1551C27.1096 28.608 27.0492 29.0863 27.0832 29.5626C27.0728 29.6595 27.0728 29.7573 27.0832 29.8542V39.5834H20.8332V20.8334H26.8748V23.5417C27.4843 22.6147 28.3216 21.8596 29.3065 21.3489C30.2914 20.8382 31.391 20.589 32.4998 20.6251C35.729 20.6251 39.4998 22.4168 39.4998 28.2501L39.5832 39.5834Z" fill="#225A5E"/>
</svg>
