<svg width="50" height="51" viewBox="0 0 50 51" fill="none" xmlns="http://www.w3.org/2000/svg">
<path d="M25.0879 19.9359C22.443 19.9359 20.2988 22.3188 20.2988 25.2582C20.2988 28.1976 22.443 30.5804 25.0879 30.5804C27.7329 30.5804 29.877 28.1976 29.877 25.2582C29.877 22.3188 27.7329 19.9359 25.0879 19.9359Z" fill="#087EA4"/>
<path d="M49.9965 25.3065C49.9965 21.1281 46.5147 17.4634 40.9711 15.0517C41.0452 14.5085 41.1122 13.9713 41.1599 13.4438C41.7066 7.43997 40.405 3.10668 37.4965 1.24003C34.2423 -0.848186 29.6458 0.667485 24.9982 4.80078C20.3506 0.667485 15.7542 -0.848186 12.5 1.24003C9.59151 3.10668 8.28983 7.43997 8.8366 13.4438C8.88422 13.9713 8.94948 14.5105 9.02533 15.0556C8.56321 15.2517 8.10992 15.4595 7.67426 15.6771C2.72506 18.1497 0 21.5732 0 25.3065C0 29.4848 3.48173 33.1495 9.02533 35.5613C8.94948 36.1044 8.88422 36.6416 8.8366 37.1691C8.28983 43.1729 9.59151 47.5062 12.5 49.3729C13.5 50.0031 14.6331 50.3252 15.7824 50.3062C18.5375 50.3062 21.7546 48.6945 24.9982 45.8121C28.2401 48.6945 31.459 50.3062 34.2176 50.3062C35.3669 50.325 36.4999 50.0028 37.5 49.3729C40.4085 47.5062 41.7102 43.1729 41.1634 37.1691C41.1158 36.6416 41.0488 36.1044 40.9747 35.5613C46.5183 33.1534 50 29.4829 50 25.3065M34.1964 2.95374C34.9354 2.93392 35.6659 3.13287 36.313 3.5302C38.3325 4.82627 39.2391 8.34192 38.7982 13.1752C38.7682 13.5046 38.7329 13.8379 38.6906 14.1732C36.3855 13.4015 34.0251 12.8512 31.6354 12.5282C30.1867 10.3875 28.5758 8.38869 26.8202 6.5537C29.577 4.1851 32.1645 2.95374 34.1946 2.95374M33.2475 30.6005C32.3554 32.3217 31.3841 33.9906 30.3372 35.6005C28.5628 35.8031 26.7802 35.9039 24.9965 35.9024C23.2133 35.9038 21.4313 35.803 19.6575 35.6005C18.6134 33.9905 17.645 32.3217 16.756 30.6005C15.864 28.8841 15.0533 27.117 14.3273 25.3065C15.0533 23.4959 15.864 21.7288 16.756 20.0124C17.6436 18.2982 18.6091 16.6352 19.6487 15.0301C21.4257 14.8224 23.2114 14.719 24.9982 14.7203C26.7814 14.7191 28.5634 14.8199 30.3372 15.0222C31.3804 16.6299 32.3494 18.2954 33.2404 20.0124C34.1318 21.7292 34.9424 23.4963 35.6692 25.3065C34.9424 27.1166 34.1318 28.8837 33.2404 30.6005M36.8827 28.6398C37.4425 30.3367 37.902 32.0723 38.2584 33.8358C36.7117 34.3718 35.135 34.7943 33.5385 35.1005C34.1453 34.0835 34.7332 33.0253 35.3023 31.926C35.865 30.8397 36.3923 29.7437 36.8897 28.6476M21.6488 38.4299C22.7459 38.5044 23.8659 38.5475 25 38.5475C26.1341 38.5475 27.2612 38.5044 28.36 38.4299C27.3182 39.8171 26.1958 41.1271 25 42.3514C23.8068 41.1273 22.6873 39.8173 21.6488 38.4299ZM16.4597 35.0966C14.8627 34.7917 13.2854 34.3706 11.738 33.8358C12.093 32.0751 12.5508 30.3421 13.1085 28.6476C13.5988 29.7437 14.1245 30.8397 14.6959 31.926C15.2674 33.0123 15.8583 34.0828 16.4597 35.1005M13.1085 21.9634C12.5528 20.2752 12.0962 18.5487 11.7416 16.7948C13.2851 16.2594 14.8581 15.8356 16.4509 15.5262C15.8477 16.5399 15.2568 17.5908 14.6871 18.6869C14.1174 19.783 13.5971 20.8653 13.0997 21.9634M28.3494 12.1811C27.2524 12.1066 26.1324 12.0635 24.9894 12.0635C23.8559 12.0635 22.7388 12.1027 21.6382 12.1811C22.6768 10.7937 23.7962 9.48368 24.9894 8.25957C26.1856 9.48336 27.3081 10.7934 28.3494 12.1811ZM35.2988 18.6869C34.7273 17.5863 34.1364 16.5275 33.5262 15.5105C35.1269 15.8167 36.7078 16.2398 38.2584 16.7771C37.9026 18.5375 37.4449 20.2705 36.888 21.9653C36.3976 20.8692 35.8703 19.7732 35.3006 18.6889M11.2054 13.1772C10.7591 8.34584 11.671 4.82823 13.6888 3.53216C14.3361 3.13545 15.0664 2.93654 15.8053 2.9557C17.8355 2.9557 20.423 4.18706 23.1798 6.55566C21.423 8.39196 19.8109 10.392 18.3611 12.534C15.972 12.8586 13.6119 13.4069 11.3059 14.1732C11.2653 13.8379 11.2283 13.5066 11.2001 13.1772M8.6514 18.0908C8.92303 17.9601 9.19994 17.8294 9.48215 17.6987C10.037 20.3007 10.7893 22.8458 11.731 25.3065C10.7875 27.772 10.0346 30.3223 9.48039 32.9299C4.98624 30.8809 2.38112 28.0417 2.38112 25.3065C2.38112 22.7143 4.67405 20.0849 8.6514 18.0908ZM13.6888 47.0808C11.671 45.7847 10.7591 42.2671 11.2054 37.4357C11.2336 37.1063 11.2706 36.775 11.3112 36.4377C13.6163 37.2092 15.9767 37.7596 18.3664 38.0828C19.8155 40.2243 21.4264 42.2243 23.1815 44.0612C19.3382 47.3611 15.8265 48.4494 13.6941 47.0808M38.7964 37.4357C39.2373 42.269 38.3307 45.7847 36.3112 47.0808C34.1805 48.4533 30.6671 47.3611 26.8255 44.0612C28.5801 42.2243 30.1904 40.2242 31.6389 38.0828C34.0286 37.7598 36.389 37.2094 38.6941 36.4377C38.7364 36.775 38.7717 37.1063 38.8017 37.4357M40.5267 32.926C39.9709 30.3199 39.2174 27.771 38.2743 25.3065C39.217 22.8406 39.9699 20.2903 40.5249 17.683C45.0102 19.732 47.6224 22.5712 47.6224 25.3065C47.6224 28.0417 45.0173 30.8809 40.5231 32.9299" fill="#087EA4"/>
</svg>
