<svg width="94" height="28" viewBox="0 0 94 28" fill="none" xmlns="http://www.w3.org/2000/svg">
<g clip-path="url(#clip0_28_70)">
<path d="M12.0825 26.3474C14.8471 26.3474 17.0657 24.9822 18.7381 21.8421L22.4584 14.8793V20.784C22.4584 24.2654 24.7111 26.3474 28.1925 26.3474C30.923 26.3474 32.9368 25.1528 34.8822 21.8421L43.4492 7.37042C45.3264 4.19621 43.9953 1.80701 39.8654 1.80701C37.6469 1.80701 36.2134 2.52377 34.9164 4.94709L29.0117 16.0398V6.17582C29.0117 3.24053 27.6123 1.80701 25.0183 1.80701C22.9704 1.80701 21.3321 2.69443 20.0692 5.15188L14.5058 16.0398V6.27822C14.5058 3.13813 13.2088 1.80701 10.0687 1.80701H3.65206C1.22873 1.80701 0 2.93335 0 5.01536C0 7.09737 1.29699 8.29197 3.65206 8.29197H6.28017V20.7499C6.28017 24.2654 8.63523 26.3474 12.0825 26.3474Z" fill="#225A5E"/>
<path fill-rule="evenodd" clip-rule="evenodd" d="M56.6392 1.80701C49.6423 1.80701 44.2837 7.02911 44.2837 14.0943C44.2837 21.1595 49.6764 26.3474 56.6392 26.3474C63.602 26.3474 68.9265 21.1253 68.9606 14.0943C68.9606 7.02911 63.602 1.80701 56.6392 1.80701ZM56.6392 18.8044C54.0111 18.8044 52.2021 16.8248 52.2021 14.0943C52.2021 11.3638 54.0111 9.35004 56.6392 9.35004C59.2673 9.35004 61.0763 11.3638 61.0763 14.0943C61.0763 16.8248 59.3015 18.8044 56.6392 18.8044Z" fill="#225A5E"/>
<path fill-rule="evenodd" clip-rule="evenodd" d="M68.9604 14.0943C68.9604 7.02911 74.319 1.80701 81.2818 1.80701C88.2446 1.80701 93.6032 7.06324 93.6032 14.0943C93.6032 21.1253 88.2446 26.3474 81.2818 26.3474C74.319 26.3474 68.9604 21.1595 68.9604 14.0943ZM76.8789 14.0943C76.8789 16.8248 78.6196 18.8044 81.2818 18.8044C83.9099 18.8044 85.7189 16.8248 85.7189 14.0943C85.7189 11.3638 83.9099 9.35004 81.2818 9.35004C78.6537 9.35004 76.8789 11.3638 76.8789 14.0943Z" fill="#225A5E"/>
</g>
<defs>
<clipPath id="clip0_28_70">
<rect width="93.6032" height="26.5404" fill="white" transform="translate(0 0.807007)"/>
</clipPath>
</defs>
</svg>
