<?xml version="1.0" encoding="UTF-8"?> <svg xmlns="http://www.w3.org/2000/svg" width="50" height="51" viewBox="0 0 50 51" fill="none"><g clip-path="url(#clip0_38_120)"><path d="M50 0.807007H0V50.807H50V0.807007Z" fill="#225A5E"></path><path d="M8.9114 32.7514C8.55787 32.7514 8.25737 32.6336 8.00989 32.398C7.76241 32.1563 7.63867 31.8694 7.63867 31.5371C7.63867 31.1988 7.76241 30.9089 8.00989 30.6672C8.25737 30.4255 8.55787 30.3047 8.9114 30.3047C9.27083 30.3047 9.57429 30.4255 9.82176 30.6672C10.0751 30.9089 10.2018 31.1988 10.2018 31.5371C10.2018 31.8694 10.0751 32.1563 9.82176 32.398C9.57429 32.6336 9.27083 32.7514 8.9114 32.7514Z" fill="white"></path><path d="M23.0445 32.5521H20.7464L14.6922 23.0006C14.539 22.759 14.4122 22.5082 14.3121 22.2485H14.259C14.3062 22.5264 14.3298 23.1215 14.3298 24.0337V32.5521H12.2969V19.557H14.7451L20.5962 28.8819C20.8437 29.2686 21.0028 29.5344 21.0735 29.6794H21.1088C21.0499 29.3351 21.0204 28.7521 21.0204 27.9304V19.557H23.0445V32.5521Z" fill="white"></path><path d="M32.944 32.5521H25.8291V19.557H32.6612V21.3876H27.9327V25.0668H32.2901V26.8883H27.9327V30.7306H32.944V32.5521Z" fill="white"></path><path d="M43.0554 21.3876H39.4139V32.5521H37.3103V21.3876H33.6777V19.557H43.0554V21.3876Z" fill="white"></path></g><defs><clipPath id="clip0_38_120"><rect width="50" height="50" fill="white" transform="translate(0 0.807007)"></rect></clipPath></defs></svg> 