<?xml version="1.0" encoding="UTF-8"?> <svg xmlns="http://www.w3.org/2000/svg" width="50" height="50" viewBox="0 0 50 50" fill="none"><path d="M46.797 27.825L44.3438 20.4688L39.4938 5.87502C39.4364 5.70978 39.3287 5.56667 39.1857 5.46579C39.0428 5.36491 38.8719 5.31131 38.697 5.31252C38.5226 5.31196 38.3523 5.36586 38.21 5.4667C38.0678 5.56754 37.9605 5.71029 37.9032 5.87502L33.0532 20.4594H16.9438L12.0938 5.8719C12.0365 5.70749 11.9291 5.56516 11.7867 5.46485C11.6444 5.36453 11.4742 5.31127 11.3001 5.31252C11.1256 5.3115 10.9551 5.36521 10.8128 5.46612C10.6704 5.56702 10.5632 5.71003 10.5063 5.87502L5.66259 20.4594L3.21259 27.825C3.10416 28.1532 3.10427 28.5076 3.21289 28.8357C3.32151 29.1638 3.53288 29.4482 3.81572 29.6469L25.0032 44.6844L46.1845 29.6469C46.4686 29.4492 46.6815 29.1653 46.7918 28.8372C46.9021 28.5091 46.9039 28.1542 46.797 27.825Z" fill="#034F62"></path></svg> 