<?xml version="1.0" encoding="UTF-8"?> <svg xmlns="http://www.w3.org/2000/svg" width="50" height="50" viewBox="0 0 50 50" fill="none"><g clip-path="url(#clip0_142_772)"><path d="M45.8973 6.9126C48.1501 6.9126 49.9934 8.75588 49.9934 11.0087V12.1961L44.3026 16.2612L24.9285 29.6071L5.55433 16.1258V43.0872H4.09612C1.84332 43.0872 0 41.244 0 38.9912V11.0098C0 8.75698 1.84332 6.91369 4.09612 6.91369L24.9285 22.3592L45.8961 6.91369L45.8973 6.9126Z" fill="#225A5E"></path><path d="M4.09619 6.9126L24.9285 22.3581L45.8973 6.9126H4.09619Z" fill="url(#paint0_linear_142_772)"></path><path d="M5.5542 16.1257V43.0872H44.3036V16.2611L24.9283 29.607L5.5542 16.1257Z" fill="#E7E4D7"></path><path d="M5.5542 43.0872L24.9283 29.607L24.8406 29.5449L5.5542 42.7909V43.0872Z" fill="#B8B7AE"></path><path d="M44.3034 16.2612L44.3145 43.0873L24.9282 29.6071L44.3034 16.2612Z" fill="#B7B6AD"></path><path d="M49.9934 12.1962L50.0001 38.9945C49.9024 41.9731 48.6118 43.0363 44.3148 43.0862L44.3037 16.2601L49.9945 12.1951L49.9934 12.1962Z" fill="#034F62"></path><path d="M4.09619 6.9126L24.9285 22.3581L45.8973 6.9126H4.09619Z" fill="url(#paint1_linear_142_772)"></path><path d="M4.09619 6.9126L24.9285 22.3581L45.8973 6.9126H4.09619Z" fill="url(#paint2_linear_142_772)"></path><path d="M4.09619 6.9126L24.9285 22.3581L45.8973 6.9126H4.09619Z" fill="url(#paint3_linear_142_772)"></path><path d="M4.09619 6.9126L24.9285 22.3581L45.8973 6.9126H4.09619Z" fill="url(#paint4_linear_142_772)"></path><path d="M4.09619 6.9126L24.9285 22.3581L45.8973 6.9126H4.09619Z" fill="url(#paint5_linear_142_772)"></path><path d="M4.09619 6.9126L24.9285 22.3581L45.8973 6.9126H4.09619Z" fill="url(#paint6_linear_142_772)"></path><path d="M4.09619 6.9126L24.9285 22.3581L45.8973 6.9126H4.09619Z" fill="url(#paint7_linear_142_772)"></path><path d="M4.09619 6.9126L24.9285 22.3581L45.8973 6.9126H4.09619Z" fill="#F7F5ED"></path></g><defs><linearGradient id="paint0_linear_142_772" x1="11.6171" y1="14.6367" x2="38.3256" y2="14.6367" gradientUnits="userSpaceOnUse"><stop stop-color="#F8F6EF"></stop><stop offset="1" stop-color="#E7E4D6"></stop></linearGradient><linearGradient id="paint1_linear_142_772" x1="11.6171" y1="14.6367" x2="38.3256" y2="14.6367" gradientUnits="userSpaceOnUse"><stop stop-color="#F8F6EF"></stop><stop offset="1" stop-color="#E7E4D6"></stop></linearGradient><linearGradient id="paint2_linear_142_772" x1="11.6171" y1="14.6367" x2="38.3256" y2="14.6367" gradientUnits="userSpaceOnUse"><stop stop-color="#F8F6EF"></stop><stop offset="1" stop-color="#E7E4D6"></stop></linearGradient><linearGradient id="paint3_linear_142_772" x1="11.6171" y1="14.6367" x2="38.3256" y2="14.6367" gradientUnits="userSpaceOnUse"><stop stop-color="#F8F6EF"></stop><stop offset="1" stop-color="#E7E4D6"></stop></linearGradient><linearGradient id="paint4_linear_142_772" x1="11.6171" y1="14.6367" x2="38.3256" y2="14.6367" gradientUnits="userSpaceOnUse"><stop stop-color="#F8F6EF"></stop><stop offset="1" stop-color="#E7E4D6"></stop></linearGradient><linearGradient id="paint5_linear_142_772" x1="11.6171" y1="14.6367" x2="38.3256" y2="14.6367" gradientUnits="userSpaceOnUse"><stop stop-color="#F8F6EF"></stop><stop offset="1" stop-color="#E7E4D6"></stop></linearGradient><linearGradient id="paint6_linear_142_772" x1="11.6171" y1="14.6367" x2="38.3256" y2="14.6367" gradientUnits="userSpaceOnUse"><stop stop-color="#F8F6EF"></stop><stop offset="1" stop-color="#E7E4D6"></stop></linearGradient><linearGradient id="paint7_linear_142_772" x1="11.6171" y1="14.6367" x2="38.3256" y2="14.6367" gradientUnits="userSpaceOnUse"><stop stop-color="#F8F6EF"></stop><stop offset="1" stop-color="#E7E4D6"></stop></linearGradient><clipPath id="clip0_142_772"><rect width="50" height="50" fill="white"></rect></clipPath></defs></svg> 