<?xml version="1.0" encoding="UTF-8"?> <svg xmlns="http://www.w3.org/2000/svg" width="50" height="50" viewBox="0 0 50 50" fill="none"><g clip-path="url(#clip0_142_792)"><path d="M35.7928 37.4172C37.1053 36.2956 39.2298 36.2986 40.5381 37.4238C41.8464 38.549 41.8429 40.3705 40.5305 41.4922L34.7025 46.4729C29.3257 51.068 20.5579 51.1346 15.0905 46.6274C15.0588 46.6017 12.6243 44.5585 4.59295 37.8184C-0.750108 33.3346 -1.28241 26.1598 3.74556 21.5524L13.1201 12.9614C18.1103 8.38819 27.309 7.88833 33.0145 11.8373L41.5289 17.7306C42.9708 18.7286 43.196 20.5398 42.0319 21.776C40.8678 23.0122 38.7553 23.2053 37.3134 22.2073L28.7991 16.314C25.8152 14.2488 20.5955 14.5325 18.0208 16.8921L8.64604 25.4831C6.1983 27.7262 6.46641 31.3396 9.2872 33.7068C15.1848 38.6562 19.73 42.4705 19.7353 42.4748C22.5778 44.818 27.1739 44.783 29.9648 42.3979L35.7928 37.4172Z" fill="#034F62"></path><path fill-rule="evenodd" clip-rule="evenodd" d="M21.6352 32.433C19.7821 32.433 18.2798 31.145 18.2798 29.5562C18.2798 27.9674 19.7821 26.6794 21.6352 26.6794H46.3814C48.2345 26.6794 49.7368 27.9674 49.7368 29.5562C49.7368 31.145 48.2345 32.433 46.3814 32.433H21.6352Z" fill="#FBFBE4"></path><path fill-rule="evenodd" clip-rule="evenodd" d="M26.2694 0.911419C27.5355 -0.248793 29.6588 -0.309412 31.012 0.776023C32.3653 1.86146 32.436 3.68191 31.17 4.84212L8.64614 25.4833C6.19836 27.7261 6.46641 31.3395 9.28704 33.7068L19.6889 42.4365C21.0131 43.5479 21.0358 45.3694 19.7395 46.5045C18.4432 47.6401 16.3188 47.6595 14.9945 46.5482L4.59263 37.8183C-0.750113 33.3343 -1.28241 26.1595 3.74578 21.5524L26.2694 0.911419Z" fill="#225A5E"></path></g><defs><clipPath id="clip0_142_792"><rect width="50" height="50" fill="white"></rect></clipPath></defs></svg> 