<?xml version="1.0" encoding="UTF-8"?> <svg xmlns="http://www.w3.org/2000/svg" width="87" height="82" viewBox="0 0 87 82" fill="none"><g clip-path="url(#clip0_33_119)"><path d="M58.9838 29.4152L49.3759 32.3361L41.0171 35.7708L38.6787 36.3456C38.0831 36.873 37.4586 37.4072 36.7832 37.9481C36.0425 38.5431 35.3526 39.0841 34.8224 39.4762C34.2342 39.9089 33.3627 40.7203 32.9197 41.234C32.2588 42.0048 31.736 42.8229 31.5108 43.4518C31.1114 44.5878 31.3076 45.7371 32.0773 46.7988C33.065 48.151 35.0331 49.5302 37.3279 50.4701C38.4971 50.9502 40.4652 51.5655 41.9466 51.9102C44.4084 52.4918 49.1725 53.1206 51.7941 53.2153C52.3242 53.2356 53.0359 53.2356 53.0649 53.2153C53.1231 53.1814 53.5297 52.458 54.0019 51.5588C55.6141 48.4958 56.776 45.6222 57.4078 43.1679C57.7854 41.6805 58.0831 39.6993 58.2791 37.3532C58.33 36.6974 58.3517 34.4999 58.3082 33.7561C58.2428 32.5391 58.1266 31.552 57.9452 30.5851C57.9161 30.4431 57.9087 30.3146 57.9233 30.3078C57.9523 30.2876 58.0394 30.2606 59.2232 29.9427L58.9836 29.4154V29.4152H58.9838V29.4152ZM56.7906 30.612C56.8777 30.612 57.1101 32.6877 57.1681 33.9995C57.1827 34.2767 57.1754 34.4592 57.1609 34.4592C57.1028 34.4592 55.9336 33.817 55.0986 33.3302C54.3723 32.9042 52.9925 32.0522 52.7747 31.8899C52.7019 31.8426 52.7091 31.8359 53.3047 31.6465C54.3141 31.3287 56.7107 30.612 56.7906 30.612ZM51.8959 32.1131C51.9613 32.1131 52.1282 32.2009 52.5276 32.4308C54.0236 33.303 56.0571 34.3578 56.9285 34.7095C57.1972 34.8176 57.2262 34.777 56.609 35.1692C55.2873 36.0076 53.6386 36.8325 51.6197 37.6641C51.264 37.8129 50.9662 37.9278 50.959 37.9278C50.9445 37.9278 50.988 37.7588 51.046 37.556C51.5326 35.8723 51.8086 34.1684 51.8232 32.8026C51.8305 32.1265 51.8305 32.1265 51.8959 32.1063C51.8813 32.1131 51.8885 32.1131 51.8959 32.1131ZM50.8864 32.4714C50.9299 32.5119 50.9009 34.0265 50.8428 34.4389C50.7121 35.4261 50.5087 36.3456 50.1748 37.3802C50.0949 37.6302 50.0221 37.8399 50.0078 37.8534C49.9786 37.8872 48.9837 36.9811 48.6569 36.6296C48.0904 36.021 47.6475 35.4125 47.3207 34.8175C47.1536 34.5133 46.8923 33.9183 46.914 33.898C47.0302 33.8236 50.8574 32.4444 50.8864 32.4714ZM46.1369 34.209C46.1441 34.209 46.1514 34.209 46.1587 34.2157C46.1732 34.2293 46.2241 34.3375 46.2677 34.4592C46.5 35.0474 47.0228 35.9129 47.4732 36.4673C47.967 37.0759 48.6134 37.7249 49.1507 38.1509C49.325 38.2861 49.4847 38.4145 49.5064 38.4348C49.5501 38.4754 49.5646 38.4686 48.3808 38.8879C47.0084 39.3747 45.5123 39.8615 43.7984 40.3753C43.389 40.4982 42.9799 40.6222 42.5713 40.7472C42.5058 40.7675 42.5276 40.7337 42.7165 40.4565C43.5661 39.2192 44.8587 36.7919 45.585 35.0745C45.7085 34.7769 45.8319 34.4795 45.8537 34.4119C45.8828 34.3171 45.919 34.2834 46.0134 34.236C46.0642 34.2226 46.1152 34.209 46.1369 34.209ZM44.6846 34.7702C44.7063 34.7838 44.3359 35.5072 43.9728 36.1698C43.2683 37.4477 42.4986 38.7054 41.4674 40.2334C41.2931 40.4971 41.1261 40.7405 41.1043 40.7676C41.068 40.8149 41.0534 40.8013 40.9372 40.5918C40.6903 40.1388 40.4869 39.5572 40.378 39.0231C40.269 38.4956 40.2909 37.5762 40.4144 37.0082C40.5087 36.5891 40.5015 36.5958 40.7194 36.4944C41.6489 36.0549 44.6555 34.7432 44.6846 34.7702ZM57.2118 35.2436V35.5275C57.2118 37.0353 57.0375 39.1043 56.7832 40.6121C56.7397 40.8758 56.7032 41.0921 56.6961 41.0989C56.6961 41.0989 56.4855 41.0449 56.2386 40.9772C55.1493 40.6593 53.9656 40.1928 52.898 39.6452C52.1934 39.2869 51.1696 38.6986 51.1987 38.6715C51.2058 38.6648 51.5109 38.516 51.8667 38.3402C53.2902 37.6506 54.6554 36.9068 55.8392 36.1699C56.2822 35.8926 56.9502 35.4464 57.0956 35.3247L57.2118 35.2436ZM39.2015 37.2448C39.2305 37.2448 39.2233 37.2989 39.1797 37.5423C39.1506 37.7182 39.1144 38.0427 39.0999 38.2657C39.0417 39.2529 39.2161 39.9832 39.739 40.9838C39.8842 41.2611 40.0005 41.491 39.9931 41.4977C39.9422 41.5383 35.1348 42.8501 33.6241 43.2354C33.1739 43.3503 32.7818 43.4517 32.7526 43.4584C32.7019 43.472 32.6946 43.4653 32.7164 43.3502C32.8834 42.3564 33.6968 41.0582 34.8296 39.9628C35.5849 39.2326 36.1877 38.8067 37.2189 38.2589C37.9597 37.8669 39.0998 37.2787 39.187 37.2516C39.187 37.2448 39.1943 37.2448 39.2015 37.2448ZM50.5306 39.1312C50.5378 39.1245 50.7121 39.2124 50.9226 39.3273C52.4768 40.1658 54.6409 40.9434 56.4854 41.3422L56.6525 41.3761L56.4201 41.4977C55.4543 41.9981 52.2807 43.2286 49.0346 44.3578C48.5624 44.52 48.0977 44.6823 48.0104 44.7161C47.9233 44.7499 47.8434 44.7702 47.8434 44.7635C47.8434 44.7566 47.9742 44.52 48.1411 44.2293C49.0489 42.6471 49.964 40.7202 50.4288 39.3814C50.487 39.253 50.5232 39.1381 50.5306 39.1312ZM49.3759 39.4829C49.3832 39.4898 49.3251 39.6316 49.2524 39.7939C48.6206 41.2205 47.7926 42.7757 46.7324 44.5201C46.4638 44.9664 46.2386 45.3248 46.2312 45.3248C46.2241 45.3248 46.0061 45.203 45.7447 45.0543C44.2051 44.1753 42.8398 43.0935 41.9466 42.0454L41.8159 41.8967L42.4767 41.7276C44.8442 41.1259 46.8557 40.4769 48.8529 39.679C49.1362 39.5708 49.3686 39.4829 49.3759 39.4829ZM56.5509 41.8155C56.5582 41.9711 56.1878 43.3639 55.8827 44.3713C55.6286 45.2164 55.4106 45.8791 55.0113 47.0487C54.837 47.5627 54.6846 47.9886 54.6772 47.9886C54.67 47.9886 54.6264 47.9818 54.5829 47.9684C52.426 47.6032 50.4943 47.0961 48.6787 46.42C48.1703 46.2306 47.4441 45.9263 47.4005 45.8926C47.3861 45.8789 47.8218 45.6897 48.3737 45.4666C51.678 44.1211 55.1058 42.593 56.2822 41.9372C56.4201 41.8561 56.5291 41.8155 56.5509 41.8155ZM39.9859 42.343C40.0004 42.3564 39.0781 43.5938 37.7854 45.2773C37.3352 45.8656 36.8123 46.5552 36.6163 46.8121C36.4201 47.0691 36.1224 47.4748 35.9554 47.7182L35.6502 48.1577L35.3234 47.9008C34.9385 47.6032 34.2705 46.9677 33.9727 46.6161C33.3481 45.8927 32.927 45.1287 32.76 44.4323C32.6801 44.1077 32.6801 43.9453 32.7526 43.9252C32.8615 43.8981 34.8005 43.4721 36.6162 43.0799C37.6256 42.8636 38.7948 42.6067 39.216 42.512C39.6372 42.4172 39.9786 42.343 39.9859 42.343ZM40.9154 42.6743L41.1477 42.9177C42.1936 44.0062 43.2611 44.811 44.5538 45.514C44.7862 45.6358 44.9605 45.7439 44.9459 45.7508C44.8952 45.7845 40.4578 47.2516 38.4027 47.9143C37.248 48.2929 36.2966 48.5971 36.2895 48.5971C36.2822 48.5971 36.2168 48.5566 36.1441 48.5093L36.0135 48.4213L36.224 48.1374C36.9066 47.2178 37.7637 46.2104 39.6301 44.1144L40.9154 42.6743ZM46.7107 46.5349C46.7178 46.5282 47.0374 46.6363 47.4295 46.7717C48.3737 47.1029 49.1216 47.3125 50.1239 47.5492C51.3585 47.84 53.1449 48.1239 54.198 48.205C54.3578 48.2185 54.4449 48.2321 54.4159 48.2524C54.3649 48.2795 53.2975 48.6108 52.5132 48.8407C51.264 49.2057 47.4514 50.2537 44.3432 51.0854C43.7695 51.2409 43.2756 51.3694 43.2466 51.3761C43.174 51.3897 42.9343 51.3287 42.9343 51.3017C42.9343 51.2882 43.1086 51.0787 43.3192 50.8487C44.3649 49.6858 45.4035 48.3876 46.2677 47.157C46.5073 46.8189 46.7107 46.5417 46.7107 46.5349ZM45.4324 46.5688C45.4397 46.5756 44.9241 47.3463 44.0237 48.6715C43.6387 49.2327 43.2102 49.8683 43.0577 50.0914C42.9125 50.3078 42.6946 50.6459 42.5712 50.8352L42.3606 51.18L42.2517 51.153C41.9901 51.0853 40.1529 50.4835 39.6663 50.301C39.0635 50.0778 38.4389 49.8075 37.9741 49.5776C37.3932 49.2868 36.6671 48.854 36.7251 48.8406C36.7396 48.8339 37.7345 48.5836 38.9327 48.2794C42.1136 47.4747 43.8783 47.0082 45.0331 46.6702C45.2437 46.6093 45.4252 46.562 45.4324 46.5688ZM54.4739 48.543H54.4811C54.5102 48.6107 53.3338 51.6533 52.9051 52.6134C52.8109 52.8297 52.7747 52.8839 52.7237 52.877C52.6003 52.8704 50.8937 52.6472 49.8551 52.5052C48.0469 52.2483 45.0113 51.7546 44.2488 51.5924L44.0745 51.5587L45.1564 51.3286C47.4804 50.8418 48.5988 50.5782 49.7316 50.2536C51.1623 49.848 52.5785 49.3408 54.0091 48.7188C54.2342 48.6241 54.4231 48.5498 54.4739 48.543Z" fill="url(#paint0_linear_33_119)"></path><path d="M49.0784 8.56321C48.9186 8.54304 46.3405 9.40848 44.6775 10.0372C42.4334 10.8892 40.6906 11.7006 39.6157 12.4037C39.2164 12.6675 38.7152 13.1339 38.6354 13.3165C38.6064 13.3841 38.5918 13.4652 38.5918 13.5464L39.565 14.4051L41.8816 15.0947L47.3936 16.0143L53.6971 17.0217L53.7625 16.5146C53.7408 16.5146 53.7262 16.5079 53.7046 16.5079L52.8765 16.3861L52.7096 16.109C51.8526 14.7026 50.9085 12.9581 50.3566 11.7816C49.9282 10.8688 49.5215 9.81418 49.2963 9.05687C49.1728 8.5971 49.1583 8.57007 49.0786 8.56334V8.56318H49.0784V8.56321ZM48.9621 8.90815H48.9695C48.9767 8.91482 49.0057 9.10426 49.0348 9.32726C49.1582 10.274 49.3835 11.1866 49.7393 12.1738C50.0079 12.9176 50.0079 12.8771 49.6957 12.7891C48.955 12.5998 45.6362 12.0657 43.2324 11.7547C42.8475 11.7073 42.5207 11.66 42.5207 11.6533C42.4916 11.6262 44.2563 10.7675 45.0333 10.4295C46.0283 10.0034 48.7588 8.94191 48.9621 8.90815ZM41.9614 11.9372L42.2447 12.025C43.7842 12.5119 47.6548 13.2016 49.79 13.3638C50.0296 13.3841 50.2331 13.4045 50.2402 13.4045C50.2474 13.4112 50.0442 13.5126 49.7827 13.6275C48.7516 14.1076 47.6186 14.6958 46.8343 15.1489C46.602 15.284 46.3913 15.3923 46.3623 15.3923C46.3332 15.3923 46.1808 15.3652 46.021 15.3449L45.7305 15.3043L45.0044 14.6416C43.7262 13.4855 42.724 12.5931 42.3391 12.2549L41.9614 11.9372ZM41.671 12.1468L42.6949 13.3368C43.2541 13.9927 43.8205 14.6349 43.9441 14.7769C44.0674 14.919 44.1692 15.0339 44.1619 15.0407C44.1329 15.0609 42.6805 14.7972 41.9106 14.635C41.1191 14.4659 40.7923 14.3848 40.3057 14.2429L39.9063 14.1211V14.0264C39.9135 13.5734 40.5309 12.8973 41.5766 12.2077L41.671 12.1468ZM50.371 13.7695C50.4001 13.7695 50.4363 13.8303 50.5235 14.0129C50.7704 14.52 51.5403 15.8858 51.729 16.1495C51.7872 16.2375 51.8887 16.2442 50.8649 16.0887C48.4031 15.7167 47.6114 15.5951 47.6114 15.5816C47.6114 15.5749 47.684 15.5275 47.7784 15.4801C48.541 15.0881 49.3108 14.5877 49.9935 14.0535C50.1605 13.925 50.313 13.8033 50.342 13.783C50.3492 13.7695 50.3638 13.7628 50.371 13.7695Z" fill="url(#paint1_linear_33_119)"></path><path d="M38.6861 13.2218C38.6861 13.2218 38.5264 13.4585 38.6789 13.8102C38.7734 14.0264 39.0493 14.2901 39.3615 14.5606C39.3615 14.5606 42.5932 17.495 42.9853 17.9143C44.7718 19.8344 45.5489 21.7276 45.6215 24.3375C45.6651 26.0143 45.3237 27.4883 44.4741 29.1989C42.9635 32.2686 39.7754 35.6561 34.8589 39.4154L35.578 39.1923C36.0427 38.8677 36.6745 38.5229 38.156 37.7656C41.5764 36.0211 45.4254 34.4187 50.1459 32.7689C56.9431 30.3889 68.1197 27.6031 74.4813 26.6972L75.1423 26.6025L75.0405 26.4538C74.4597 25.6153 74.0601 25.0947 73.5807 24.5403C72.1865 22.9311 70.4945 21.6262 68.4247 20.5444C65.5779 19.0637 61.8959 17.9075 57.2337 17.0488C56.355 16.8865 54.4232 16.5755 52.8546 16.3524C49.5285 15.8724 47.3789 15.5411 45.0114 15.1624C44.1618 15.0271 42.8908 14.8243 42.0484 14.6554C41.6127 14.5674 40.7776 14.3848 40.124 14.1753C39.6012 13.9858 38.8458 13.7965 38.6861 13.2218ZM40.5598 14.9122C40.567 14.9055 40.6832 14.946 40.8358 14.9933C41.1117 15.0811 41.4675 15.1826 41.8889 15.2908C42.2076 15.3725 42.5271 15.4513 42.8474 15.5275C43.2832 15.6288 43.6462 15.7235 43.6534 15.7235C43.7044 15.7709 44.4379 17.9546 44.6848 18.7931C44.7791 19.1109 44.8518 19.3813 44.8446 19.3813C44.8371 19.3882 44.7573 19.2732 44.663 19.1177C43.8133 17.7248 42.4698 16.3117 40.9156 15.1758C40.7124 15.0407 40.5598 14.9189 40.5598 14.9122ZM44.1328 15.8317C44.1691 15.8317 44.3289 15.852 44.5249 15.8926C45.7595 16.1495 47.9745 16.5417 49.3906 16.7648C49.6302 16.7986 49.8191 16.8392 49.8191 16.8527C49.8191 16.8663 49.7319 16.9135 49.6229 16.9677C49.3834 17.0826 48.4174 17.6167 48.098 17.8195C47.2918 18.3199 46.5657 18.8608 46.0427 19.3476C45.8322 19.5437 45.6505 19.7059 45.6505 19.7059C45.6505 19.7059 45.6071 19.591 45.5706 19.449C45.3093 18.5091 44.7646 17.1163 44.2707 16.1359C44.1908 15.9805 44.1254 15.8384 44.1254 15.825C44.1254 15.8385 44.1254 15.8317 44.1328 15.8317ZM50.4218 16.9474C50.4654 16.9608 50.538 17.1907 50.6832 17.6978C50.952 18.6783 51.0754 19.7736 51.0319 20.7946C51.0173 21.0785 51.0028 21.3422 50.9882 21.3761L50.9665 21.4436L50.5889 21.3287C49.8118 21.0988 48.5482 20.7539 47.4662 20.47C46.8488 20.3145 46.3478 20.1725 46.3478 20.159C46.3478 20.1184 47.2484 19.28 47.6332 18.9623C48.3666 18.3604 50.3564 16.927 50.4218 16.9474ZM50.9229 17.0149C50.9447 16.9947 53.9295 17.4747 55.2875 17.7181C56.297 17.9006 57.7639 18.1846 57.851 18.2185C57.8946 18.232 57.7421 18.3131 57.2555 18.5159C55.3383 19.3206 53.9148 20.0439 52.4989 20.923C52.1285 21.1529 51.8162 21.3422 51.8089 21.3422C51.8017 21.3422 51.7944 21.1462 51.7944 20.9095C51.7944 19.6249 51.5185 18.3267 51.01 17.2313C50.9592 17.1232 50.9156 17.0218 50.9229 17.0149ZM58.6426 18.4349C58.6644 18.4551 58.5699 19.0028 58.4828 19.3273C58.2214 20.3348 57.517 21.8291 56.6529 23.2354C56.5002 23.4856 56.3623 23.6884 56.3477 23.6952C56.3333 23.7019 56.1372 23.6005 55.912 23.4788C55.0696 23.019 54.1111 22.5863 53.0652 22.1806C52.7749 22.0657 52.5206 21.9709 52.5133 21.9575C52.4624 21.9169 54.8009 20.4767 56.0355 19.7871C57.0159 19.2327 58.6135 18.4078 58.6426 18.4349ZM59.1945 18.516C59.2599 18.516 60.5816 18.8541 61.2714 19.0434C62.9781 19.5167 64.9388 20.186 66.217 20.7269L66.747 20.9501L66.3768 21.0312C63.2541 21.7005 60.5816 22.4714 58.0035 23.445C57.7929 23.5262 57.604 23.5938 57.5897 23.5938C57.5751 23.5938 57.6477 23.4383 57.7421 23.2489C58.5192 21.7141 59.0203 20.1117 59.1436 18.7458C59.151 18.6173 59.1726 18.516 59.1945 18.516ZM46.0355 21.3287C46.0572 21.3084 47.0667 21.5316 47.6114 21.6734C48.4392 21.8899 50.1966 22.4375 50.1966 22.4781C50.1966 22.4848 50.0006 22.6404 49.7683 22.8297C48.817 23.5667 47.9019 24.3442 46.8052 25.3314C46.4784 25.6222 46.2025 25.8588 46.188 25.8588C46.1734 25.8588 46.1663 25.8182 46.1734 25.7641C46.3404 24.6282 46.3042 23.1678 46.0718 21.687C46.05 21.4976 46.0282 21.3354 46.0355 21.3287ZM67.2483 21.349C67.2627 21.3625 66.7835 22.0657 66.4785 22.4645C66.0428 23.046 65.4036 23.8169 63.9584 25.5072C63.196 26.3997 62.339 27.4072 62.0558 27.7452C61.7652 28.0833 61.5257 28.3672 61.5183 28.3672C61.5111 28.3672 61.4168 28.2456 61.3151 28.0968C60.5017 26.9609 59.5285 25.967 58.3738 25.0745C58.156 24.9054 57.9164 24.7228 57.8365 24.6687C57.7566 24.6147 57.6912 24.5606 57.6912 24.5539C57.6912 24.5336 58.9257 24.0399 59.8626 23.6884C61.5039 23.0663 63.7404 22.3226 65.4181 21.8425C66.2969 21.5856 67.2337 21.3355 67.2483 21.349ZM67.8075 21.4842C67.8364 21.4775 68.0108 21.5586 68.2214 21.6734C69.9862 22.6133 71.7145 23.8236 73.0799 25.0677C73.4647 25.4194 74.416 26.3389 74.4014 26.3456C74.4014 26.3456 74.0674 26.3727 73.6753 26.3997C70.6179 26.6161 66.7037 27.2178 62.9418 28.0629C62.6877 28.1169 62.4626 28.1643 62.448 28.1643C62.4336 28.1643 62.7167 27.9006 63.0727 27.5829C65.2803 25.6018 66.2898 24.351 67.4807 22.1197C67.6477 21.7885 67.793 21.5045 67.8075 21.4842C67.8002 21.4842 67.8002 21.4842 67.8075 21.4842ZM51.6346 23.0259C51.7363 23.046 52.6804 23.4586 53.3921 23.7898C54.0457 24.094 55.0261 24.5809 55.0769 24.6214C55.0841 24.6282 54.7355 24.7972 54.3072 24.9933C52.9418 25.6289 51.7726 26.2306 50.5525 26.9203C50.204 27.1164 49.9135 27.2787 49.9063 27.2787C49.8772 27.2787 49.8844 27.2515 50.0805 26.9203C50.7342 25.8115 51.257 24.4863 51.5548 23.1948C51.5837 23.0934 51.6128 23.0259 51.6346 23.0259ZM50.6905 23.1881C50.7123 23.2084 50.4654 24.04 50.3129 24.493C50.0151 25.3517 49.514 26.4267 49.0275 27.2381C48.9112 27.4273 48.737 27.7046 48.6426 27.8601L48.461 28.1305L48.0544 27.7655C47.5824 27.3395 47.1974 27.0758 46.7037 26.8391C46.5075 26.7445 46.355 26.6633 46.355 26.6499C46.355 26.5958 47.5968 25.5478 48.5482 24.7905C49.2308 24.2428 50.6687 23.1678 50.6905 23.1881ZM56.464 25.3991L56.8199 25.6153C57.6331 26.109 58.5917 26.7648 59.3253 27.3395C59.7391 27.6572 60.5379 28.3267 60.6978 28.4889L60.7848 28.5769L60.1968 28.7324C56.8706 29.591 54.2998 30.355 51.3005 31.3828C50.9665 31.4977 50.6832 31.5924 50.6614 31.5924C50.618 31.5924 50.5815 31.6262 51.3296 30.9838C53.2469 29.3409 54.9461 27.5288 56.2098 25.7641L56.464 25.3991ZM54.9462 25.7506C54.9607 25.7641 53.9658 27.069 53.3702 27.806C52.6586 28.685 51.3949 30.159 50.5235 31.119C50.1604 31.518 49.8482 31.8493 49.8336 31.8561C49.8118 31.8628 49.8045 31.7614 49.8045 31.6059C49.8045 30.7877 49.5795 29.9155 49.1873 29.1718C49.0202 28.8608 48.9911 28.7864 49.0276 28.7526C49.1655 28.6376 51.2788 27.5152 52.615 26.8459C53.5155 26.3997 54.9242 25.7371 54.9462 25.7506ZM45.7667 27.8466C45.7886 27.8466 45.9556 27.9277 46.1444 28.0224C46.6092 28.2591 47.0231 28.5227 47.3935 28.8068C47.408 28.8202 47.2192 28.9623 46.9723 29.1312C46.2824 29.591 45.2367 30.328 44.6267 30.7811C43.9875 31.2544 43.9659 31.2679 44.0384 31.1665C44.5178 30.4836 44.7573 30.0982 45.0116 29.6046C45.2367 29.1652 45.4617 28.6445 45.6215 28.1915C45.6796 27.9954 45.7523 27.8466 45.7667 27.8466ZM48.2142 29.6316C48.2504 29.6249 48.2941 29.6857 48.4901 29.9562C48.904 30.5308 49.2236 31.3017 49.3036 31.9237L49.3179 32.059L48.3231 32.4174C46.5438 33.0596 44.9026 33.6953 43.7914 34.1685C43.4792 34.3037 42.9345 34.5471 42.5787 34.7095C42.2228 34.8784 41.9324 35.0069 41.9324 35.0002C41.9324 34.9934 42.1574 34.8379 42.4334 34.6485C44.6049 33.1814 46.4858 31.5721 47.8946 29.963C48.0471 29.7939 48.1852 29.6384 48.1996 29.6316L48.2142 29.6316ZM47.0885 29.8886C47.1176 29.9156 46.2897 30.7878 45.7233 31.3219C44.3217 32.654 42.9346 33.6953 41.2134 34.7095C40.9956 34.8379 40.7995 34.9528 40.7777 34.9664C40.7268 34.9934 40.7921 34.9258 41.5474 34.1617C42.0268 33.6817 42.3899 33.276 42.8038 32.7757C43.0798 32.4445 43.1306 32.3971 43.5301 32.1333C44.5977 31.4166 47.0595 29.8615 47.0885 29.8886Z" fill="url(#paint2_radial_33_119)"></path><path d="M15.6406 57.8852C15.5067 57.8852 15.3726 57.8971 15.2399 57.8971C12.534 58.0314 10.709 59.1401 9.64196 61.3052C8.72935 63.2633 8.82899 65.8229 9.6522 67.7931C10.6095 69.7181 12.1563 70.7341 14.7382 71.1178C15.2845 71.2011 15.6509 71.4804 16.7089 72.6305L18.0108 74.0506H20.3719L18.8019 72.577C17.934 71.769 17.2321 71.0655 17.2321 71.0037C17.2321 70.9419 17.5641 70.8065 17.9659 70.6924C19.2908 70.3192 20.3909 69.3663 21.1605 67.9058C21.7834 66.7331 21.8728 66.3706 21.9621 64.9114C22.1957 60.5683 19.7362 57.853 15.6405 57.884L15.6406 57.8852ZM17.7107 69.2429C16.5621 69.7609 14.8941 69.8643 13.8053 69.4924C12.6796 69.1074 11.5897 68.0189 11.0995 66.7867C10.5545 65.4392 10.6323 62.9533 11.2552 61.8339C12.2571 60.0514 13.582 59.2316 15.5181 59.2316C18.3897 59.2316 20.0234 60.8691 20.2366 63.9467C20.4051 66.5158 19.481 68.4432 17.712 69.2418L17.7107 69.2429ZM58.4989 61.595C57.5085 61.595 56.7504 61.9683 56.2398 62.7036L55.839 63.286V61.772H54.125V70.8506H55.8379V67.9488C55.8379 65.2953 55.8735 64.9852 56.2717 64.2591C56.8206 63.2633 57.765 62.7668 58.6777 63.0044L59.2903 63.1708V61.5975H58.4989V61.595ZM48.4289 61.5118C48.0931 61.5118 47.737 61.5535 47.3824 61.626C45.0888 62.1844 43.7959 64.2282 43.875 66.3315C43.875 68.0926 44.2425 68.973 45.1552 69.8964C47.025 71.3247 48.7161 71.4387 50.9981 70.6724C51.3874 70.5179 51.8111 70.3397 51.8111 70.3397V68.9114L50.9981 69.3035C49.1512 70.0521 47.7601 70.0521 46.6458 69.1704C45.935 68.4966 45.6222 67.6886 45.4781 66.7666H52.3892V65.5425C52.3892 63.0471 50.776 61.4714 48.4275 61.5118H48.4289ZM45.6338 65.4926C45.6338 65.4926 45.8891 63.936 46.8361 63.3252C47.2918 63.0257 47.815 62.8808 48.3267 62.8808C48.8399 62.8808 49.3517 63.0352 49.7741 63.3359C50.6421 63.9574 50.7875 65.4808 50.7875 65.4808H45.6338V65.4926H45.6338ZM4.31079 63.8552C2.45255 62.8071 1.62804 62.0513 1.72886 61.1601C2.01725 58.6944 5.28979 59.0355 7.10206 59.9683L7.11495 58.3095C7.11495 58.3095 6.113 57.9055 4.6771 57.8841C2.47421 57.8532 1.04985 58.5257 0.38243 59.8946C-0.597864 61.9147 0.270135 63.438 3.40736 65.1374C5.1686 66.0915 5.94708 66.9198 5.94708 67.8228C5.94708 69.6885 3.53107 70.3397 1.03849 69.1692C0.525508 68.9315 0.0915086 68.733 0.068555 68.733C-0.0208463 69.2619 0.0252375 70.5273 0.0252375 70.5273C0.0252375 70.5273 0.791063 70.8269 1.93962 71.0334C4.78822 71.5622 7.3805 70.3181 7.62552 68.2981C7.83869 66.4016 7.10212 65.407 4.31091 63.8539L4.31079 63.8552ZM73.6691 61.4905C73.3347 61.4905 72.9798 61.5332 72.6097 61.6057C70.3188 62.1642 69.0283 64.2081 69.1164 66.3114C69.1164 68.0701 69.4828 68.9423 70.3952 69.8643C72.2651 71.2939 73.9562 71.4091 76.2498 70.6415C76.6377 70.4871 77.0602 70.3113 77.0602 70.3113V68.8807L76.2485 69.275C74.3979 70.0213 73.0067 70.0213 71.8964 69.1396C71.1816 68.4671 70.8715 67.6685 70.7272 66.7357H77.6269V65.5117C77.6269 63.0283 76.0136 61.4514 73.6652 61.493L73.6691 61.4905ZM70.8739 65.4712C70.8739 65.4712 71.1318 63.9169 72.0775 63.2942C72.5319 62.9937 73.0551 62.8486 73.5669 62.8486C74.0774 62.8486 74.5918 63.0031 75.0144 63.3049C75.8823 63.9264 76.0278 65.4605 76.0278 65.4605H70.8753L70.8739 65.4712ZM39.4564 63.8754C37.5982 62.8297 36.7762 62.0715 36.8757 61.1802C37.1641 58.7133 40.4367 59.0556 42.249 59.9885L42.2618 58.3297C42.2618 58.3297 41.2599 57.9256 39.824 57.9065C37.6211 57.8757 36.1967 58.5483 35.5281 59.9171C34.5491 61.9371 35.4285 63.4606 38.5554 65.1599C40.3142 66.113 41.0927 66.9305 41.0927 67.8335C41.0927 69.6992 38.6779 70.361 36.1853 69.1798C35.6748 68.9421 35.2409 68.746 35.2154 68.746C35.126 69.2748 35.172 70.5404 35.172 70.5404C35.172 70.5404 35.9288 70.8292 37.0737 71.0465C39.9249 71.5765 42.5184 70.3335 42.7622 68.3135C42.9741 66.4264 42.2389 65.4319 39.4565 63.8776V63.8754H39.4564ZM83.7404 61.5737C82.75 61.5737 81.983 61.9479 81.4814 62.6835L81.0805 63.2634V61.7519H79.3664V70.828H81.0793V67.9263C81.0793 65.274 81.1136 64.9627 81.5133 64.2378C82.0621 63.2433 83.0064 62.7454 83.919 62.9842L84.5316 63.1505V61.5737L83.7404 61.5737ZM25.8255 63.8231V58.0408H24.0975V70.8482H31.3648V69.3356H25.8256V63.8231H25.8255ZM65.7892 65.6256L64.3648 69.0764L62.9953 65.6066L61.6041 61.7614H59.8352C60.9814 64.7868 62.2281 67.8644 63.4854 70.8482C64.0304 70.8601 64.5766 70.8482 65.1215 70.8482L67.045 66.3518L69.0042 61.7626H67.3131C67.3131 61.7626 66.5664 63.5854 65.7879 65.6269L65.7892 65.6256ZM29.8076 54.5508C30.0858 54.5508 30.3181 54.4677 30.5095 54.2895C30.6983 54.1135 30.7979 53.9068 30.7979 53.6478C30.7979 53.3887 30.6983 53.1724 30.5095 53.0061C30.3181 52.8397 30.0972 52.7565 29.8203 52.7565C29.5396 52.7565 29.3072 52.8397 29.1183 53.0155C28.9269 53.1915 28.8401 53.4078 28.8401 53.6573C28.8401 53.9187 28.9295 54.1349 29.1183 54.299C29.2971 54.4653 29.5294 54.5485 29.8076 54.5485V54.5508ZM29.195 53.0774C29.3609 52.923 29.5625 52.8516 29.8203 52.8516C30.0629 52.8516 30.2646 52.923 30.4331 53.0774C30.599 53.2319 30.6883 53.4196 30.6883 53.6478C30.6883 53.8759 30.599 54.0732 30.4331 54.2276C30.2646 54.382 30.0629 54.4557 29.8203 54.4557C29.574 54.4557 29.3736 54.3845 29.2078 54.2276C29.0419 54.0732 28.9525 53.8759 28.9525 53.6478C28.9525 53.4196 29.0291 53.2319 29.195 53.0774ZM29.6072 53.731H29.7195C29.7987 53.731 29.8765 53.8022 29.9428 53.9378L30.0769 54.2181H30.2875L30.1216 53.9067C30.054 53.782 29.9877 53.7095 29.9097 53.6892C30.008 53.6678 30.0858 53.637 30.142 53.5751C30.1981 53.5217 30.2185 53.4492 30.2185 53.3672C30.2185 53.2721 30.1866 53.2009 30.1191 53.1486C30.0425 53.0892 29.9199 53.0571 29.7616 53.0571H29.4069V54.2181H29.5856V53.7309L29.6072 53.731ZM29.6072 53.1915H29.763C29.8752 53.1915 29.9544 53.2129 29.9978 53.2437C30.0399 53.2746 30.0514 53.3151 30.0514 53.3887C30.0514 53.5229 29.9619 53.586 29.7961 53.586H29.6047V53.1915H29.6072ZM1.06127 53.6276C1.06127 53.2235 1.04856 52.923 1.03831 52.7459H1.04856C1.09317 52.9549 1.14808 53.1107 1.19275 53.214L2.85188 56.6648H3.13015L4.78928 53.1832C4.83407 53.0882 4.87874 52.9455 4.93359 52.747H4.94631C4.91317 53.0917 4.90169 53.3911 4.90169 53.6299V56.6755H5.46953V52.1482H4.75738L3.23226 55.2971C3.17606 55.4218 3.09819 55.6085 2.99867 55.8556H2.9756C2.94246 55.7332 2.86459 55.5466 2.75359 55.3185L1.26279 52.1374H0.506027V56.6647H1.05226V53.6298L1.06127 53.6276ZM6.71403 53.636H7.20423V56.4557H6.71403V53.636ZM6.9591 52.6021C7.06127 52.6021 7.14803 52.5699 7.21436 52.5071C7.28204 52.4452 7.32677 52.3644 7.32677 52.2694C7.32677 52.1767 7.29352 52.0935 7.21571 52.0318C7.14679 51.9688 7.05868 51.9366 6.95786 51.9366C6.8584 51.9366 6.76906 51.9688 6.70255 52.0318C6.6351 52.0935 6.59031 52.1767 6.59031 52.2694C6.59031 52.3728 6.6248 52.4452 6.70255 52.5071C6.7793 52.5699 6.85834 52.6021 6.95786 52.6021H6.9591ZM10.6988 56.5176V56.0208C10.4307 56.2074 10.1422 56.3001 9.8436 56.3001C9.48635 56.3001 9.19649 56.1861 8.98461 55.9675C8.77408 55.7512 8.66179 55.4505 8.66179 55.0762C8.66179 54.6841 8.77408 54.3726 9.00632 54.135C9.22968 53.9068 9.51948 53.7928 9.87432 53.7928C10.164 53.7928 10.4421 53.8761 10.6988 54.0425V53.5137C10.4653 53.3996 10.1986 53.3473 9.89728 53.3473C9.34074 53.3473 8.90692 53.5137 8.58274 53.8346C8.26104 54.1554 8.09513 54.5915 8.09513 55.118C8.09513 55.5861 8.23932 55.9795 8.53937 56.2801C8.85201 56.589 9.25163 56.7459 9.74166 56.7459C10.1206 56.7361 10.4307 56.6624 10.6988 56.5176ZM12.1013 55.0143C12.1013 54.6424 12.1907 54.3418 12.3566 54.1349C12.5124 53.9484 12.7012 53.8546 12.9246 53.8546C13.1135 53.8546 13.2474 53.8866 13.3457 53.9591V53.4196C13.2692 53.3888 13.1581 53.3781 13.0139 53.3781C12.8135 53.3781 12.6349 53.4409 12.4779 53.5563C12.312 53.6786 12.1793 53.8653 12.1014 54.1029H12.0887V53.441H11.5335V56.6731H12.0899V55.0143H12.1013ZM15.296 56.7373C15.8193 56.7373 16.2405 56.5804 16.5531 56.2692C16.8645 55.9601 17.0202 55.5443 17.0202 55.0261C17.0202 54.4974 16.8773 54.0934 16.5863 53.7926C16.2979 53.4922 15.897 53.347 15.3737 53.347C14.8504 53.347 14.4292 53.492 14.1166 53.7724C13.7822 54.0815 13.606 54.5176 13.606 55.0773C13.606 55.5645 13.749 55.9686 14.0503 56.2692C14.3616 56.5804 14.7739 56.7361 15.296 56.7361V56.7373ZM14.5046 54.1041C14.7165 53.8961 14.9949 53.7927 15.3393 53.7927C15.6968 53.7927 15.9648 53.8961 16.1639 54.1041C16.3642 54.3215 16.4639 54.6317 16.4639 55.0464C16.4639 55.4408 16.3745 55.751 16.1856 55.959C15.9967 56.1765 15.7185 56.2916 15.3508 56.2916C14.9935 56.2916 14.7165 56.1763 14.5046 55.959C14.2941 55.7403 14.1932 55.4408 14.1932 55.0464C14.1716 54.6543 14.2826 54.3335 14.5046 54.1041ZM19.4568 56.4557C19.6686 56.2799 19.781 56.0636 19.781 55.7926C19.781 55.5549 19.6916 55.3577 19.5257 55.202C19.3903 55.0774 19.1812 54.9644 18.8787 54.8503C18.6105 54.7458 18.4447 54.653 18.3553 54.5805C18.266 54.4974 18.2111 54.3941 18.2111 54.2478C18.2111 54.1136 18.2673 54.0102 18.3771 53.927C18.4894 53.8439 18.6323 53.8036 18.8238 53.8036C19.1237 53.8036 19.3802 53.8772 19.615 54.0329V53.5147C19.3904 53.4103 19.1466 53.3604 18.8684 53.3604C18.511 53.3604 18.2098 53.4519 17.9876 53.6288C17.7541 53.8048 17.6431 54.0329 17.6431 54.3014C17.6431 54.539 17.7196 54.7364 17.8651 54.8812C17.9876 55.0049 18.1971 55.1309 18.4879 55.2437C18.7662 55.3578 18.9551 55.4611 19.0559 55.5442C19.1554 55.6275 19.2001 55.7308 19.2001 55.8533C19.2001 56.155 18.9781 56.3108 18.5441 56.3108C18.2097 56.3108 17.9098 56.2086 17.6416 56.0019V56.5602C17.8842 56.6958 18.1752 56.7575 18.4968 56.7575C18.9091 56.7374 19.2319 56.6435 19.454 56.4569L19.4568 56.4557ZM22.1064 53.3471C21.583 53.3471 21.1619 53.4921 20.8492 53.7725C20.5174 54.0816 20.3387 54.5177 20.3387 55.0774C20.3387 55.5646 20.483 55.9687 20.7829 56.2693C21.0956 56.5805 21.5065 56.7362 22.0298 56.7362C22.5658 56.7362 22.9743 56.5794 23.287 56.268C23.5997 55.9591 23.7554 55.5432 23.7554 55.025C23.7554 54.4962 23.6099 54.0923 23.3214 53.7916C23.0203 53.4909 22.6194 53.346 22.1089 53.346L22.1064 53.3471ZM23.1861 55.0465C23.1861 55.4409 23.0968 55.7511 22.9079 55.959C22.719 56.1765 22.4407 56.2917 22.0731 56.2917C21.7156 56.2917 21.4387 56.1764 21.2268 55.959C21.0163 55.7404 20.9155 55.4409 20.9155 55.0465C20.9155 54.6305 21.0266 54.3098 21.2499 54.0934C21.4604 53.8866 21.7388 53.782 22.0846 53.782C22.4292 53.782 22.7062 53.8865 22.9065 54.0934C23.0852 54.3215 23.1848 54.6317 23.1848 55.0465H23.1861ZM24.6897 56.6637H25.2449V53.8653H26.0578V53.4303H25.2448V52.9313C25.2448 52.4774 25.4336 52.2493 25.8242 52.2493C25.9557 52.2493 26.0897 52.2801 26.1893 52.3324V51.8655C26.0897 51.8239 25.9557 51.8145 25.7884 51.8145C25.4885 51.8145 25.2435 51.8977 25.043 52.0735C24.8095 52.2802 24.6857 52.5488 24.6857 52.9125V53.4425H24.0985V53.8774H24.6857V56.6652L24.6897 56.6637ZM26.9703 55.7819C26.9703 56.4142 27.2704 56.7361 27.8829 56.7361C28.1051 56.7361 28.2722 56.7029 28.4062 56.6292V56.1848C28.3042 56.2562 28.1829 56.2895 28.0489 56.2895C27.8601 56.2895 27.7273 56.2477 27.6494 56.1539C27.5702 56.0613 27.5256 55.9043 27.5256 55.6881V53.8641H28.4062V53.4291H27.5256V52.4762C27.3342 52.538 27.1466 52.5903 26.9691 52.6425V53.4291H26.3692V53.8641H26.9691V55.7808L26.9703 55.7819ZM86.7014 61.7399C86.5126 61.5737 86.2892 61.4904 86.0123 61.4904C85.7315 61.4904 85.4991 61.5737 85.3102 61.7519C85.1214 61.9266 85.0319 62.1439 85.0319 62.3936C85.0319 62.6527 85.1214 62.869 85.3088 63.0352C85.4978 63.2016 85.73 63.2849 86.0109 63.2849C86.2878 63.2849 86.5214 63.2016 86.7129 63.0257C86.9005 62.8475 87 62.6419 87 62.3841C86.9898 62.1227 86.889 61.9063 86.7001 61.74L86.7014 61.7399ZM86.6121 62.964C86.4462 63.1184 86.2445 63.1897 85.9995 63.1897C85.757 63.1897 85.5554 63.1184 85.3869 62.964C85.221 62.8071 85.1316 62.611 85.1316 62.3817C85.1316 62.1558 85.2081 61.9682 85.3766 61.8113C85.5425 61.657 85.743 61.5855 85.9995 61.5855C86.242 61.5855 86.4437 61.657 86.6121 61.8113C86.778 61.9682 86.8673 62.1558 86.8673 62.3817C86.8673 62.6218 86.7908 62.8071 86.6121 62.964ZM86.1117 62.4351C86.2113 62.4138 86.2905 62.3722 86.3453 62.3211C86.4015 62.2676 86.422 62.195 86.422 62.1121C86.422 62.0193 86.3901 61.9456 86.3225 61.8946C86.2459 61.8351 86.1222 61.803 85.9652 61.803H85.6104V62.9627H85.7892V62.4755H85.9001C85.9768 62.4755 86.0534 62.5468 86.1222 62.6823L86.2548 62.9615H86.4668L86.301 62.6501C86.2435 62.5146 86.1771 62.4528 86.1096 62.4326L86.1117 62.4351ZM85.9892 62.3306H85.7978V61.9386H85.9548C86.0659 61.9386 86.1437 61.9575 86.1884 61.9896C86.233 62.0205 86.2433 62.0609 86.2433 62.1346C86.2433 62.2689 86.1539 62.3307 85.9881 62.3307L85.9892 62.3306ZM54.9381 53.2961H55.0938V52.1351H55.5059V51.9901H54.5259V52.1351H54.9382V53.2961H54.9381ZM55.8825 52.4239C55.8825 52.3109 55.8825 52.2182 55.8736 52.1661C55.8838 52.2278 55.9068 52.2695 55.917 52.3003L56.3957 53.2961H56.4723L56.952 52.2907C56.9649 52.2599 56.9752 52.2195 56.9968 52.1661C56.9865 52.2695 56.9865 52.3524 56.9865 52.4156V53.2949H57.1525V51.9901H56.952L56.5182 52.8909C56.508 52.923 56.4734 52.9859 56.4518 53.0573H56.439C56.4301 53.0156 56.4072 52.9741 56.3752 52.9029L55.9413 51.9902H55.7167V53.2973H55.8736V52.4252L55.8825 52.4239Z" fill="#231F1F"></path></g><defs><linearGradient id="paint0_linear_33_119" x1="38.5375" y1="48.812" x2="41.8788" y2="46.6914" gradientUnits="userSpaceOnUse"><stop stop-color="#909CA9"></stop><stop offset="1" stop-color="#EDEDEE"></stop></linearGradient><linearGradient id="paint1_linear_33_119" x1="38.6173" y1="12.7792" x2="41.4127" y2="12.7792" gradientUnits="userSpaceOnUse"><stop stop-color="#939FAB"></stop><stop offset="1" stop-color="#DCDEE1"></stop></linearGradient><radialGradient id="paint2_radial_33_119" cx="0" cy="0" r="1" gradientUnits="userSpaceOnUse" gradientTransform="translate(52.723 24.7158) rotate(-172.039) scale(3.59879 6.72262)"><stop stop-color="#225A5E"></stop><stop offset="1" stop-color="#034F62"></stop></radialGradient><clipPath id="clip0_33_119"><rect width="87" height="81" fill="white" transform="translate(0 0.807007)"></rect></clipPath></defs></svg> 