<?xml version="1.0" encoding="UTF-8"?> <svg xmlns="http://www.w3.org/2000/svg" width="98" height="64" viewBox="0 0 98 64" fill="none"><g clip-path="url(#clip0_33_106)"><path fill-rule="evenodd" clip-rule="evenodd" d="M0.00557548 58.414H3.23959V43.1535L8.29022 56.4587C8.8623 58.058 9.68419 58.6505 11.2755 58.6505C12.8669 58.6505 13.6397 58.0574 14.2308 56.4587L19.2563 43.1535V58.414H22.5154V43.1535C22.5154 41.6724 22.0175 40.9598 20.9726 40.5746C18.5097 39.6859 16.8676 40.4563 16.1215 42.4409L11.1713 55.598L6.39442 42.4409C5.6729 40.4563 4.00571 39.6859 1.51831 40.5746C0.497926 40.9598 0.000557282 41.6718 0.000557282 43.1535L0 58.414H0.00557548ZM25.2074 45.9981H28.4665V54.3845C28.442 54.8581 28.5909 55.9254 30.3623 55.954C31.2824 55.9839 37.3779 55.954 37.427 55.954V45.9384H40.6861V59.6587C40.6861 63.0366 37.1733 63.7765 35.5362 63.8071H25.2877V61.2301H35.5624C37.6522 60.9631 37.4036 59.7191 37.4036 59.304V58.2958H30.5118C27.3023 58.2659 25.237 56.577 25.213 54.6509V45.9968L25.2074 45.9981ZM95.1145 36.2781C93.125 36.2183 91.5816 36.4561 90.288 37.1083C89.9155 37.2876 89.3178 37.2876 89.2687 37.8495C89.4678 38.0853 89.4918 38.4711 89.6663 38.7979C89.9646 39.391 90.4876 40.19 90.9599 40.6044C91.4829 41.0793 92.0054 41.5529 92.5518 41.968C93.522 42.6786 94.6166 43.0937 95.5617 43.8051C96.1092 44.2202 96.6562 44.7535 97.2038 45.1985C97.4826 45.4356 97.6515 45.8215 98 45.9689V45.8792C97.826 45.6136 97.7758 45.2284 97.6024 44.9308C97.3532 44.6353 97.1045 44.3676 96.8553 44.0721C96.1343 42.9164 95.2383 41.9082 94.2681 41.0793C93.4718 40.4271 91.731 39.5385 91.4076 38.4426L91.3586 38.3828C91.905 38.323 92.5518 38.0859 93.0748 37.9079C93.9212 37.6423 94.6918 37.7007 95.5617 37.4344C95.9603 37.3148 96.3579 37.1674 96.7566 37.0193V36.7536C96.3088 36.2203 95.9854 35.509 95.5132 35.0055C94.2446 33.7018 92.8507 32.4272 91.4076 31.3606C90.6365 30.7682 89.6412 30.3823 88.8204 29.8795C88.521 29.7015 88.0242 29.6125 87.8502 29.3163C87.4014 28.6654 87.1532 27.8053 86.8298 27.0342C86.1089 25.4044 85.4119 23.5972 84.7902 21.8783C84.3424 20.7227 84.0681 19.567 83.5217 18.5004C80.959 13.4627 78.1722 10.4108 73.8932 7.41744C72.9732 6.79512 71.8787 6.52746 70.715 6.20202L68.8493 6.08247C68.4506 5.87525 68.0531 5.31204 67.7046 5.04505C66.2866 3.9784 62.6294 1.6671 61.5839 4.7196C60.912 6.64568 62.5792 8.54187 63.1452 9.52019C63.5689 10.2016 64.1154 10.9721 64.4148 11.7425C64.5821 12.2459 64.6378 12.7799 64.8124 13.3132C65.2099 14.617 65.5835 16.0695 66.106 17.2849C66.3848 17.9073 66.6775 18.5601 67.026 19.1227C67.225 19.4481 67.5735 19.5969 67.6477 20.1302C67.2992 20.7233 67.2752 21.6113 67.0762 22.3532C66.1801 25.7019 66.5286 29.8503 67.7971 32.309C68.1958 33.0496 69.1353 34.6801 70.41 34.0571C71.5296 33.5238 71.2798 31.8348 71.6032 30.3531C71.6785 29.9977 71.6283 29.7606 71.7772 29.5228V29.5826L72.7976 32.042C73.5687 33.4939 74.9125 35.0055 76.0316 36.0137C76.6282 36.5471 77.101 37.4663 77.8471 37.7917V37.702H77.798C77.6486 37.4364 77.4244 37.3168 77.2254 37.1096C76.7776 36.5763 76.2803 35.9241 75.9318 35.3316C74.8874 33.6726 73.9674 31.8348 73.1461 29.9386C72.7474 29.0201 72.3989 28.0125 72.0766 27.094C71.9261 26.738 71.9261 26.204 71.6779 26.0274C71.3044 26.6782 70.7579 27.2428 70.483 28.0424C70.0102 29.3163 69.9611 30.887 69.7872 32.5169C69.6868 32.5468 69.7314 32.5169 69.6868 32.5767C68.8917 32.3402 68.6173 31.3613 68.319 30.5324C67.573 28.4283 67.4481 25.0504 68.0949 22.6202C68.2688 21.9979 69.016 20.0419 68.7177 19.4495C68.5672 18.8862 68.0709 18.5608 67.7966 18.1158C67.4732 17.5526 67.1258 16.8419 66.9016 16.2196C66.305 14.5592 66.0067 12.7228 65.3594 11.063C65.0599 10.2926 64.538 9.49229 64.1148 8.78164C63.642 7.98132 63.1206 7.41811 62.7471 6.47034C62.6227 6.1449 62.4487 5.61091 62.6478 5.25492C62.6969 5.01781 62.7972 4.92948 62.9952 4.86971C63.3186 4.54427 64.2397 4.9587 64.5631 5.13537C65.4831 5.58036 66.2543 5.9948 67.0254 6.61646C67.3739 6.91268 67.7475 7.47589 68.1953 7.62466H68.7183C69.5145 7.83188 70.4094 7.68444 71.1549 7.9501C72.4736 8.45487 73.6674 9.19475 74.738 9.99573C77.9965 12.4551 80.6841 15.952 82.4996 20.1309C82.7979 20.8123 82.9223 21.4346 83.1966 22.146C83.7196 23.5985 84.3664 25.0796 84.8878 26.5029C85.4108 27.8956 85.9081 29.319 86.6542 30.4746C87.0278 31.0969 88.5199 31.4224 89.1912 31.7485C89.6891 32.0141 90.4597 32.2532 90.9086 32.5787C91.7539 33.201 92.5998 33.9123 93.3954 34.5937C93.793 34.9484 95.0375 35.6896 95.1117 36.2807L95.1145 36.2781ZM69.7442 10.5271C69.4005 10.5234 69.0579 10.5732 68.725 10.6752V10.7349H68.774C68.9731 11.2092 69.3216 11.5353 69.5703 11.9504L70.1429 13.373L70.192 13.3132C70.5405 13.017 70.715 12.5428 70.715 11.8321C70.5656 11.6249 70.541 11.417 70.4167 11.2098C70.2672 10.9136 69.9438 10.7648 69.7442 10.5284V10.5271Z" fill="#225A5E"></path><path fill-rule="evenodd" clip-rule="evenodd" d="M43.1692 58.4139H52.5233C53.6178 58.4139 54.6633 58.1483 55.5086 57.6734C56.9266 56.903 57.5985 55.8669 57.5985 54.5033V51.6587C57.5985 50.5629 56.8273 49.5248 55.2856 48.8141C54.4893 48.4588 53.494 48.2509 52.5238 48.2509H48.5928C47.2742 48.2509 46.6524 47.776 46.4779 46.7399C46.4534 46.6217 46.4534 46.5028 46.4534 46.3846V44.6358C46.4534 44.5462 46.4534 44.4286 46.4779 44.3104C46.6519 43.5101 47.0004 43.3022 48.1507 43.1548H57.7284V40.5758H48.623C47.3043 40.5758 46.6078 40.6655 45.9856 40.9026C44.0697 41.6132 43.2238 42.7397 43.2238 44.7242V46.9777C43.2238 48.7244 44.8659 50.2075 47.6522 50.5629C47.9505 50.5927 48.2739 50.5927 48.5973 50.5927H51.9562C52.0806 50.5927 52.2043 50.5927 52.3036 50.6226C53.324 50.7409 53.7717 50.9481 54.07 51.3917C54.2691 51.6288 54.3193 51.8367 54.3193 52.1037V54.3552C54.3193 54.6209 54.1698 54.9782 53.8715 55.2738C53.5732 55.5693 53.0993 55.7772 52.4776 55.8071C52.3532 55.8071 52.2796 55.837 52.1542 55.837H43.1692V58.4139ZM77.8484 53.9401C77.8484 56.5769 79.5211 58.058 82.8499 58.3555C83.1733 58.3854 83.4717 58.4139 83.7951 58.4139H92.2537V55.837H83.7209C81.829 55.837 81.108 55.2738 81.108 53.9109V40.5758H77.8423V53.9408L77.8484 53.9401ZM59.6626 54.0577V44.8723C59.6626 42.5311 61.0555 41.1078 63.7682 40.6641C64.0665 40.6342 64.3648 40.6044 64.638 40.6044H70.8072C71.1306 40.6044 71.4049 40.6342 71.7283 40.6641C74.4398 41.1078 75.8076 42.5304 75.8076 44.8723V54.0577C75.8076 55.9539 75.2361 56.9621 73.8917 57.6442L77.0756 61.0806H73.3197L70.7324 58.2957L68.1196 58.4737H64.6369C63.9987 58.4699 63.3635 58.3706 62.7461 58.1782C60.683 57.4954 59.6626 56.1923 59.6626 54.0577ZM63.1699 53.8518C63.1699 53.97 63.2256 54.0876 63.2451 54.237C63.4191 55.303 64.2644 55.8961 65.558 55.8961H68.4943L65.8078 52.9917H69.5637L71.9268 55.5408C72.3757 55.2439 72.6489 54.8288 72.7481 54.2955C72.7732 54.1772 72.7732 54.0298 72.7732 53.9102V45.1087C72.7732 44.9905 72.7732 44.873 72.7481 44.7534C72.5742 43.7465 71.7289 43.184 70.4598 43.184H65.5586C64.1155 43.184 63.1704 43.9245 63.1704 45.1087L63.1699 53.8518Z" fill="#FBFBE4"></path></g><defs><clipPath id="clip0_33_106"><rect width="98" height="63" fill="white" transform="translate(0 0.807007)"></rect></clipPath></defs></svg> 