<?xml version="1.0" encoding="UTF-8"?> <svg xmlns="http://www.w3.org/2000/svg" width="50" height="51" viewBox="0 0 50 51" fill="none"><path d="M3.55352 25.8063C3.55352 34.2955 8.48656 41.6316 15.6403 45.1081L5.41027 17.0783C4.18394 19.8245 3.55123 22.7987 3.55352 25.8063ZM39.4771 24.724C39.4771 22.0737 38.525 20.238 37.7086 18.8095C36.6214 17.0428 35.6024 15.5468 35.6024 13.7802C35.6024 11.8087 37.0976 9.97342 39.2038 9.97342C39.2989 9.97342 39.3889 9.98519 39.4816 9.99068C35.6661 6.49489 30.5827 4.36063 24.9995 4.36063C17.5072 4.36063 10.9156 8.20484 7.08096 14.0274C7.58406 14.0425 8.05815 14.0529 8.46107 14.0529C10.7041 14.0529 14.1764 13.781 14.1764 13.781C15.3326 13.7127 15.4689 15.4107 14.3141 15.5476C14.3141 15.5476 13.1522 15.6842 11.8593 15.7519L19.6694 38.9824L24.3627 24.9063L21.0213 15.7513C19.8665 15.6837 18.7724 15.547 18.7724 15.547C17.6168 15.4792 17.7523 13.7121 18.9079 13.7804C18.9079 13.7804 22.4497 14.0525 24.5568 14.0525C26.7998 14.0525 30.2723 13.7804 30.2723 13.7804C31.4291 13.7121 31.5652 15.4101 30.41 15.547C30.41 15.547 29.2457 15.6837 27.9552 15.7513L35.7055 38.8058L37.8446 31.6573C38.7716 28.6909 39.4773 26.5604 39.4773 24.7242L39.4771 24.724ZM25.3758 27.6823L18.9412 46.3805C20.9085 46.9599 22.9487 47.2541 24.9995 47.2542C27.4968 47.2542 29.8918 46.8224 32.1213 46.0385C32.0617 45.9447 32.0106 45.8458 31.9685 45.743L25.3758 27.6823ZM43.8174 15.517C43.9096 16.2001 43.9619 16.9334 43.9619 17.7222C43.9619 19.8986 43.5555 22.345 42.3312 25.404L35.7804 44.3446C42.1561 40.6265 46.4445 33.7188 46.4445 25.8069C46.4449 22.0782 45.4926 18.5718 43.8174 15.517ZM24.9995 0.807007C11.215 0.807007 0 12.0216 0 25.8063C0 39.5928 11.215 50.807 24.9995 50.807C38.7834 50.807 50 39.5928 50 25.8063C49.9998 12.0216 38.7834 0.807007 24.9995 0.807007ZM24.9995 49.6612C11.8473 49.6612 1.14621 38.9599 1.14621 25.8063C1.14621 12.6537 11.8468 1.95325 24.9995 1.95325C38.1513 1.95325 48.8514 12.6537 48.8514 25.8063C48.8514 38.9599 38.1513 49.6612 24.9995 49.6612Z" fill="#034F62"></path></svg> 